<svg xmlns="http://www.w3.org/2000/svg" width="297.739" height="144.004" viewBox="0 0 297.739 144.004">
  <g id="wallpaper" transform="translate(-1066.18 -81.489)">
    <path id="Path_376" data-name="Path 376" d="M1300.724,343.862c0-11.9-.013-23.806.036-35.709.005-1.352-.336-1.8-1.754-1.795q-31.771.066-63.541.037a8.437,8.437,0,0,0-8.634,8.583q-.008,14.441.009,28.882h-2.451q0-14.532,0-29.063a10.9,10.9,0,0,1,10.908-10.848q31.514-.005,63.028,0c2.407,0,2.407,0,2.407-2.484,0-8.871.031-17.741-.011-26.612a11.467,11.467,0,0,1,11.22-11.214c29.121.1,58.242.041,87.364.043a11.081,11.081,0,0,1,11,11.023q.013,34.578.012,69.156h-2.451q0-34.212,0-68.424c0-5.788-3.553-9.314-9.386-9.314q-42.962,0-85.924,0c-5.833,0-9.386,3.526-9.386,9.314q0,34.212,0,68.424Z" transform="translate(-102.81 -118.37)" fill="#e4e4e4"/>
    <path id="Path_377" data-name="Path 377" d="M1471.385,395.262q0-24.158,0-48.317c0-3.093,1.119-4.207,4.222-4.207q40.439-.005,80.878,0c3.093,0,4.2,1.119,4.2,4.207q0,24.158,0,48.317h-1.751q0-23.795,0-47.589c0-2.753-.412-3.179-3.091-3.179h-79.607c-2.678,0-3.091.426-3.091,3.179q0,23.795,0,47.589Z" transform="translate(-263.317 -169.769)" fill="#e4e4e4"/>
    <path id="Path_378" data-name="Path 378" d="M1658.393,485.732a2.854,2.854,0,0,1,1.834-2.676c3.247-1.63,5.662-1.457,7.788.553a2.317,2.317,0,0,1,.883,2.123h-5.953c-.584-1.107-1.167-1.115-1.751,0Z" transform="translate(-384.845 -260.239)" fill="#e4e4e4"/>
    <path id="Path_379" data-name="Path 379" d="M1666.393,491.2c.584-1.115,1.167-1.107,1.751,0Z" transform="translate(-390.044 -265.705)" fill="#fefefe"/>
    <path id="Path_380" data-name="Path 380" d="M1366.832,144.574a19.8,19.8,0,0,1-9.444-1.858,5.626,5.626,0,0,0-3.9-.307c-3.62,1.055-7.274,2-10.925,2.943-1.64.426-2.33-.292-1.826-1.894,1.048-3.328,2.107-6.653,3.229-9.956a4.411,4.411,0,0,0-.2-3.5c-3.962-8.851-3.259-17.408,1.974-25.552a23.805,23.805,0,0,1,7.354-7.088,5.918,5.918,0,0,0,1.985-2.115c5.8-9.988,14.811-14.927,26.05-13.528,10.269,1.278,17.416,7.227,20.992,17.125,2.446,6.768,1.813,13.367-1.209,19.8a3.207,3.207,0,0,0-.205,2.652c1.182,3.347,2.266,6.728,3.412,10.088.221.646.736,1.235.044,1.906a1.841,1.841,0,0,1-1.951.31c-3.54-.917-7.1-1.748-10.618-2.759a1.7,1.7,0,0,0-2.356.977c-4.128,7.421-10.811,11.13-18.868,12.727A18.739,18.739,0,0,1,1366.832,144.574Zm-6.866-3.635c6.077,1.947,12.085,1.866,17.694-1.121,11.755-6.26,16.326-20.014,10.055-31.725-4.237-7.913-11.042-12.2-19.99-12.458-10.437-.3-18.616,5.308-22.473,15.013a22.178,22.178,0,0,0,1.38,19.629,2.371,2.371,0,0,1,.23,2.128c-.993,2.795-1.912,5.616-2.815,8.441-.145.455-.638.968-.162,1.455.414.423.877-.02,1.3-.118,1.7-.39,3.4-.758,5.072-1.24,3.738-1.077,7.54-1.871,11.327-2.738.9-.206,1.4.064,1.612.812.243.843-.219,1.282-1.083,1.411C1361.39,140.536,1360.682,140.764,1359.966,140.938Zm-1.554-46.717c.223.138.32.249.409.243a3.794,3.794,0,0,0,.674-.131,26.936,26.936,0,0,1,10.825-.9,25.476,25.476,0,0,1,17.062,9.886c5.348,7.007,6.638,14.924,4.069,23.4-.347,1.145-.106,1.75,1.078,2.038,2.424.588,4.83,1.253,7.256,1.833.465.111,1.046.657,1.425.1.18-.264-.079-.873-.215-1.3-.9-2.826-1.774-5.657-2.74-8.459a2.927,2.927,0,0,1,.26-2.63,22.781,22.781,0,0,0,2.41-15.3,22.344,22.344,0,0,0-7.414-13.1,23.278,23.278,0,0,0-16.054-6.15,22.106,22.106,0,0,0-11.731,3.447A22.5,22.5,0,0,0,1358.412,94.222Z" transform="translate(-178.316)" fill="#e4e4e4"/>
    <path id="Path_381" data-name="Path 381" d="M1819.917,167.45c-.278,7.333-5.115,13.67-13.058,18.08a27.374,27.374,0,0,1-12.889,3.154,24,24,0,0,1-8.717-1.367,4.155,4.155,0,0,0-3.449.141,51.255,51.255,0,0,1-12.336,3.62c-.5.088-.931.173-1.228-.309a1.065,1.065,0,0,1,.085-1.305c2.455-2.971,2.922-6.63,3.551-10.232a3.3,3.3,0,0,0-.5-2.331c-4.8-8.1-4.7-16.187.575-23.957a24.469,24.469,0,0,1,15.845-10.309c7.99-1.652,15.523-.41,22.22,4.362C1816.294,151.467,1819.965,157.481,1819.917,167.45ZM1793.979,143.9c-7.511.334-13.968,2.775-19.177,8.482-5.458,5.979-6.6,15.568-2.4,22.493.657,1.083,1.866,1.972,1.616,3.54-.492,3.1-.9,6.2-2.312,9.065-.168.341-.572.723-.26,1.1.327.4.746.012,1.126-.069a37.289,37.289,0,0,0,14.365-6.455c.471-.344,1.091-.956,1.624-.107.41.653.066,1.232-.489,1.668a6.772,6.772,0,0,0-.727.476c-.345.356-1.122.454-.981,1.089.149.673.92.671,1.444.757a30.21,30.21,0,0,0,9.491.471c9.024-1.328,15.783-5.675,19.445-14.168a17.262,17.262,0,0,0-.855-15.8C1811.13,148.006,1803.5,144.22,1793.979,143.9Z" transform="translate(-455.998 -39.285)" fill="#e4e4e4"/>
    <path id="Path_382" data-name="Path 382" d="M1089.623,274.7a22.776,22.776,0,0,1,16.56,6.242,19.3,19.3,0,0,1,4.384,23.133c-.724,1.471-1.686,2.8-1.281,4.665.594,2.729,1.028,5.484,2.628,7.863.327.486.817.974.4,1.563-.394.556-1.1.372-1.632.264-3.474-.71-6.967-1.4-10.119-3.135a3.536,3.536,0,0,0-2.961-.271c-9.853,2.9-18.719,1.231-25.875-6.395-6.989-7.448-7.512-17.474-.779-25.458C1075.85,277.357,1081.9,274.7,1089.623,274.7Zm7.271,38.613c-.521-.362-.76-.509-.977-.683-.756-.606-2.3-1.111-1.622-2.182.719-1.142,1.764.126,2.5.631a33.574,33.574,0,0,0,11.557,5.155c.4.093.843.276,1.121-.105.111-.152-.041-.549-.15-.8a33.664,33.664,0,0,1-1.867-6.68,5.012,5.012,0,0,1,.829-4.056c3.174-5,3.809-10.445,1.354-15.8-3.365-7.335-9.449-11.432-17.409-12.283a21.977,21.977,0,0,0-19.382,7.109,16.57,16.57,0,0,0-4.249,15.588c1.671,7.7,7.109,12,14.3,14.328A22.308,22.308,0,0,0,1096.893,313.313Z" transform="translate(0 -125.544)" fill="#e4e4e4"/>
    <path id="Path_383" data-name="Path 383" d="M1519.625,419.888a15.544,15.544,0,0,1-2.528,3.068c-.985.888-.764,1.706.241,2.437a12.612,12.612,0,0,1,2.825,2.286c.513.667.538,1.191-.382,1.607a11.146,11.146,0,0,1-10.209-.053c-.656-.338-.783-.6-.348-1.31a9.417,9.417,0,0,1,2.841-2.5c1.1-.808,1.224-1.631.194-2.566a5.974,5.974,0,0,1-2.094-3.325,6.741,6.741,0,0,1,.181-4.9c.272-.622.667-1.255,1.4-.993,1.674.594,3.217.015,4.709-.491a1.869,1.869,0,0,1,2.642,1.107C1520.057,416.08,1519.438,418.014,1519.625,419.888Z" transform="translate(-287.743 -215.407)" fill="#f9f9f9"/>
    <path id="Path_384" data-name="Path 384" d="M1594.674,427.723q9.35,0,18.7.007c.83,0,1.96-.255,1.908,1.111-.042,1.1-.905,1.339-1.883,1.339q-18.7-.013-37.4,0c-.913,0-1.592-.134-1.643-1.283-.058-1.3.787-1.176,1.618-1.176Q1585.324,427.727,1594.674,427.723Z" transform="translate(-330.232 -224.991)" fill="#f9f9f9"/>
    <path id="Path_385" data-name="Path 385" d="M1594.528,410.715q9.272,0,18.544,0c.831,0,1.783-.275,1.8,1.181.017,1.394-.826,1.269-1.723,1.268q-18.544-.007-37.089-.008c-.619,0-1.315.16-1.708-.566-.579-1.072.024-1.875,1.455-1.877Q1585.168,410.7,1594.528,410.715Z" transform="translate(-330.091 -213.935)" fill="#f9f9f9"/>
    <path id="Path_386" data-name="Path 386" d="M1588.915,444.731c4.25,0,8.5.008,12.751-.007.828,0,1.513.018,1.462,1.16-.045.991-.537,1.3-1.447,1.3q-12.926-.015-25.852,0c-.911,0-1.452-.307-1.417-1.31.038-1.073.757-1.15,1.577-1.148Q1582.452,444.739,1588.915,444.731Z" transform="translate(-330.27 -236.046)" fill="#f9f9f9"/>
    <path id="Path_387" data-name="Path 387" d="M1518.173,412.518c-.187-1.874.432-3.808-.522-5.633a1.869,1.869,0,0,0-2.641-1.107c-1.492.506-3.035,1.085-4.709.491-.737-.262-1.132.371-1.4.993a6.74,6.74,0,0,0-.181,4.9c-2.8-2.2-2.427-6.244-.162-8.727,2.391-2.622,6.277-2.367,9.281.526C1520.585,406.615,1520.716,409.9,1518.173,412.518Z" transform="translate(-286.291 -208.037)" fill="#e4e4e4"/>
    <path id="Path_388" data-name="Path 388" d="M1567.475,302.669q-6.822,0-13.645,0c-2.179,0-3.333-.9-3.425-2.635a3.184,3.184,0,0,1,3.325-3.285c2.738-.087,5.48-.025,8.221-.026q9.272,0,18.543-.006a5.616,5.616,0,0,1,2.226.331,2.855,2.855,0,0,1,1.941,3.317,2.606,2.606,0,0,1-2.841,2.3Q1574.647,302.677,1567.475,302.669Zm.262-3.856h-11.015q-1.486,0-2.973.005c-.561,0-1.1.12-1.177.776-.076.689.421,1.061,1,1.249a3.451,3.451,0,0,0,1.039.07q13.113,0,26.225,0c.819,0,1.789.1,1.729-1.13-.053-1.1-.971-.966-1.717-.967Q1574.293,298.808,1567.737,298.814Z" transform="translate(-314.667 -139.854)" fill="#e4e4e4"/>
    <path id="Path_389" data-name="Path 389" d="M1334.487,413.35c-3.96,0-7.92.012-11.88,0-2.061-.009-3.231-1.078-3.2-2.855.033-1.7,1.178-2.73,3.142-2.733q12.055-.02,24.11,0a3.252,3.252,0,0,1,3.188,3c-.047,1.491-1.33,2.58-3.134,2.588C1342.641,413.362,1338.564,413.35,1334.487,413.35Zm.144-3.508c-3.787,0-7.575-.006-11.362.006-.669,0-1.608-.19-1.664.787-.065,1.15.951.949,1.669.95q11.362.017,22.724,0c.671,0,1.608.185,1.664-.79.066-1.153-.953-.944-1.669-.947C1342.206,409.833,1338.418,409.842,1334.631,409.841Z" transform="translate(-164.56 -212.017)" fill="#e4e4e4"/>
    <path id="Path_390" data-name="Path 390" d="M1437.413,180a4.259,4.259,0,0,1,4.184-4.237,4.463,4.463,0,0,1,4.547,4.324,4.755,4.755,0,0,1-4.355,4.409A4.46,4.46,0,0,1,1437.413,180Zm6.306.138a1.625,1.625,0,0,0-1.791-1.947c-1.329-.034-2.078.439-2.091,1.881-.012,1.378.578,2.014,1.972,2.005C1443.107,182.067,1443.743,181.489,1443.719,180.136Z" transform="translate(-241.243 -61.262)" fill="#e4e4e4"/>
    <path id="Path_391" data-name="Path 391" d="M1374.8,175.761a4.464,4.464,0,0,1,4.359,4.3,4.369,4.369,0,1,1-4.359-4.3Zm.008,6.3a1.842,1.842,0,0,0,2.147-1.95,1.893,1.893,0,0,0-2.183-1.931c-1.287.034-1.906.567-1.927,1.879C1372.824,181.436,1373.413,182.122,1374.809,182.063Z" transform="translate(-197.709 -61.262)" fill="#e4e4e4"/>
    <path id="Path_392" data-name="Path 392" d="M1404.382,180.048a4.21,4.21,0,1,1,8.41.192,4.208,4.208,0,1,1-8.41-.192Zm4.489,2.019a1.834,1.834,0,0,0,1.78-1.923,1.857,1.857,0,0,0-2.165-1.934,1.755,1.755,0,0,0-1.932,1.791A1.99,1.99,0,0,0,1408.87,182.067Z" transform="translate(-219.778 -61.261)" fill="#e4e4e4"/>
    <path id="Path_393" data-name="Path 393" d="M1820.374,203.267v-.175c0-2.739,1.227-3.578,3.834-2.469a1.672,1.672,0,0,0,1.555-.078c1.906-.783,3.34.245,3.373,2.321.012.757.022,1.516-.007,2.273-.016.426.145,1.091-.554,1.046-.657-.042-.46-.7-.482-1.126a17.384,17.384,0,0,0-.062-2.093c-.131-.74-.38-1.558-1.373-1.523-1.1.039-1.014.9-1.039,1.667a5.611,5.611,0,0,1-.207,2.243c-.158.348-.12.91-.681.862s-.488-.561-.5-.955c-.017-.816.027-1.634-.027-2.447a1.356,1.356,0,0,0-1.31-1.382,1.2,1.2,0,0,0-1.306,1.158,27.243,27.243,0,0,0-.173,2.952c-.016.295-.069.61-.434.654-.475.057-.587-.289-.595-.658-.018-.757-.005-1.515-.005-2.273Z" transform="translate(-490.107 -77.11)" fill="#e4e4e4"/>
    <path id="Path_394" data-name="Path 394" d="M1854.258,203.457a3.181,3.181,0,0,1,0,.585c-.237.841.643,2.089-.757,2.494-2.543.735-4.042.38-4.831-1a3.8,3.8,0,0,1,.469-4.175c.651-.633,4.419-1.147,4.862-.537C1854.6,201.663,1854.094,202.738,1854.258,203.457Zm-1.01.154c-.2-1.006-.683-1.829-1.841-1.923-1.348-.111-1.913.888-1.985,1.96a1.859,1.859,0,0,0,1.751,2.186C1852.622,205.925,1852.94,204.8,1853.248,203.612Z" transform="translate(-508.222 -77.371)" fill="#e4e4e4"/>
    <path id="Path_395" data-name="Path 395" d="M1871.636,200.74a2.789,2.789,0,0,1,3.075,3.137,3.149,3.149,0,1,1-6.3-.146C1868.411,201.786,1869.558,200.721,1871.636,200.74Zm1.685,2.991c.024-1.132-.374-1.917-1.562-1.924-1.336-.008-1.841.979-1.9,2.075a1.775,1.775,0,0,0,1.77,2C1872.857,205.863,1873.37,204.891,1873.32,203.732Z" transform="translate(-521.327 -77.495)" fill="#e4e4e4"/>
    <path id="Path_396" data-name="Path 396" d="M1805.075,203.672c-3.029-.028-2.688.308-2.712-2.644-.01-1.278-.014-2.558.007-3.836.007-.432-.156-1.081.5-1.111.685-.031.54.626.547,1.055.022,1.337.069,2.677-.009,4.009-.066,1.142.349,1.524,1.492,1.515.853-.006,2.412-.485,2.41.526S1805.752,203.373,1805.075,203.672Z" transform="translate(-478.398 -74.467)" fill="#e4e4e4"/>
    <path id="Path_397" data-name="Path 397" d="M1108.394,318.28a8.534,8.534,0,0,1,8.652-8.536,8.578,8.578,0,1,1-8.652,8.536Zm9.526,5.38c2.51-.615,4.1-2.063,4.417-3.814.138-.765.348-1.709-1.009-1.7-3.027.021-6.053.012-9.081,0-.714,0-1.135.234-.992,1.026a6.776,6.776,0,0,0,2.836,4.039.764.764,0,0,0,.647.064c.254-.1.175-.357.084-.591-.812-2.085-.808-2.087,1.514-2.087a12.471,12.471,0,0,1,1.57.013c.651.083,1.584-.406,1.887.395.287.759-.39,1.382-.975,1.886C1118.653,323.036,1118.487,323.176,1117.92,323.661Zm-2.166-8.42c-.193-.694-.581-1.318-1.488-1.257a1.362,1.362,0,0,0,.162,2.72C1115.216,316.669,1115.631,316.128,1115.754,315.241Zm3.615-1.266a1.376,1.376,0,0,0-1.137,1.5,1.18,1.18,0,0,0,1.234,1.191,1.228,1.228,0,0,0,1.148-1.452A1.347,1.347,0,0,0,1119.368,313.975Z" transform="translate(-27.432 -148.33)" fill="#fef7e4"/>
    <path id="Path_398" data-name="Path 398" d="M1123.177,339.257c.568-.485.733-.625.9-.767.585-.5,1.263-1.126.975-1.886-.3-.8-1.236-.312-1.887-.395a12.473,12.473,0,0,0-1.57-.013c-2.323,0-2.326,0-1.514,2.087.091.234.17.487-.084.591a.763.763,0,0,1-.647-.064,6.775,6.775,0,0,1-2.836-4.039c-.143-.792.278-1.028.992-1.026,3.027.01,6.054.019,9.081,0,1.357-.009,1.147.934,1.009,1.7C1127.279,337.194,1125.687,338.642,1123.177,339.257Z" transform="translate(-32.69 -163.926)" fill="#e4e4e4"/>
    <path id="Path_399" data-name="Path 399" d="M1124.28,323.1c-.123.887-.538,1.428-1.326,1.463a1.362,1.362,0,0,1-.162-2.72C1123.7,321.784,1124.087,322.408,1124.28,323.1Z" transform="translate(-35.958 -156.191)" fill="#e4e4e4"/>
    <path id="Path_400" data-name="Path 400" d="M1137.606,321.828a1.347,1.347,0,0,1,1.245,1.24,1.228,1.228,0,0,1-1.148,1.452,1.18,1.18,0,0,1-1.234-1.191A1.376,1.376,0,0,1,1137.606,321.828Z" transform="translate(-45.67 -156.183)" fill="#e4e4e4"/>
  </g>
</svg>
