<svg xmlns="http://www.w3.org/2000/svg" width="57.066" height="60.254" viewBox="0 0 57.066 60.254">
  <path id="at" d="M714.589,748.673a44.964,44.964,0,0,1-.326,5.338,34.432,34.432,0,0,1-1.056,5.3,25.619,25.619,0,0,1-1.92,4.858,16.246,16.246,0,0,1-2.919,4.013,12.692,12.692,0,0,1-4.013,2.707,13.2,13.2,0,0,1-5.242.979,11.093,11.093,0,0,1-2.919-.365,8.06,8.06,0,0,1-2.381-1.056,6.118,6.118,0,0,1-1.747-1.786,6.916,6.916,0,0,1-.979-2.515,29.462,29.462,0,0,1-2.976,2.63,18,18,0,0,1-2.823,1.786,12.252,12.252,0,0,1-2.707,1,11.433,11.433,0,0,1-2.592.307,11.741,11.741,0,0,1-2.919-.326,7.569,7.569,0,0,1-2.247-.96,6.448,6.448,0,0,1-1.67-1.555A9.017,9.017,0,0,1,672,766.953a10.8,10.8,0,0,1-.653-2.535,21.773,21.773,0,0,1-.192-3,30.578,30.578,0,0,1,.269-3.783,32.126,32.126,0,0,1,.883-4.4,24.255,24.255,0,0,1,1.69-4.435,16.173,16.173,0,0,1,2.669-3.879,12.613,12.613,0,0,1,3.783-2.765,11.632,11.632,0,0,1,5.108-1.056,9.548,9.548,0,0,1,2.362.288,8.222,8.222,0,0,1,2.17.9,10.98,10.98,0,0,1,2,1.536,21.417,21.417,0,0,1,1.958,2.189l.653-3.38a1.266,1.266,0,0,1,.691-.806,5.025,5.025,0,0,1,2-.269,7.6,7.6,0,0,1,1.171.077,2.687,2.687,0,0,1,.749.211.776.776,0,0,1,.365.326.627.627,0,0,1,.019.461l-3.418,17.665q-.615,3.341.307,4.935t3.495,1.594a5.274,5.274,0,0,0,2.842-.787,7.793,7.793,0,0,0,2.227-2.131,13.107,13.107,0,0,0,1.613-3.13,28.01,28.01,0,0,0,1.075-3.763,34.781,34.781,0,0,0,.614-4.052q.192-2.074.192-3.994a22.061,22.061,0,0,0-.9-6.356,12.918,12.918,0,0,0-3.091-5.3,15.377,15.377,0,0,0-5.857-3.648,26.659,26.659,0,0,0-9.2-1.363,29.71,29.71,0,0,0-8.065,1,23.389,23.389,0,0,0-6.221,2.707,20.673,20.673,0,0,0-4.608,3.936,25.316,25.316,0,0,0-3.245,4.743,29.732,29.732,0,0,0-2.131,5.146,41.5,41.5,0,0,0-1.229,5.069,42.354,42.354,0,0,0-.557,4.589q-.135,2.151-.134,3.648a29.143,29.143,0,0,0,.979,7.8,14.363,14.363,0,0,0,3.4,6.106,15.919,15.919,0,0,0,6.49,3.994,31.522,31.522,0,0,0,10.254,1.421,35.818,35.818,0,0,0,5.069-.326q2.265-.327,3.936-.691t2.707-.691a5.824,5.824,0,0,1,1.421-.326.635.635,0,0,1,.4.134.866.866,0,0,1,.269.422,3.283,3.283,0,0,1,.134.73q.038.441.038,1.094,0,.537-.019.883a3.162,3.162,0,0,1-.1.633,2.109,2.109,0,0,1-.211.519,1.614,1.614,0,0,1-.365.422,5.685,5.685,0,0,1-1.325.576,23.969,23.969,0,0,1-2.957.768q-1.863.383-4.359.653a51.639,51.639,0,0,1-5.492.269,38.088,38.088,0,0,1-12.155-1.69,20.5,20.5,0,0,1-8.1-4.839,18.311,18.311,0,0,1-4.512-7.565,32.955,32.955,0,0,1-1.382-9.87q0-2,.211-4.589a47.1,47.1,0,0,1,.807-5.53,44.782,44.782,0,0,1,1.67-5.991A34.427,34.427,0,0,1,663,741.492a30.584,30.584,0,0,1,4.148-5.511,25.478,25.478,0,0,1,5.76-4.532,29.991,29.991,0,0,1,7.6-3.053,38.619,38.619,0,0,1,9.7-1.114,34.827,34.827,0,0,1,10.887,1.517,20.484,20.484,0,0,1,7.585,4.282,17,17,0,0,1,4.455,6.74A25.532,25.532,0,0,1,714.589,748.673Zm-22.273,2.5a14.887,14.887,0,0,0-3-3.763,5.25,5.25,0,0,0-3.495-1.306,5.544,5.544,0,0,0-2.919.787,8.153,8.153,0,0,0-2.266,2.035,12.915,12.915,0,0,0-1.632,2.823,22.23,22.23,0,0,0-1.095,3.226,23.313,23.313,0,0,0-.6,3.207,25.221,25.221,0,0,0-.173,2.746,7.9,7.9,0,0,0,1.018,4.378,3.811,3.811,0,0,0,3.437,1.536,5.825,5.825,0,0,0,1.882-.326,9.9,9.9,0,0,0,2.035-1,16.522,16.522,0,0,0,2.285-1.767q1.21-1.094,2.669-2.592Z" transform="translate(-657.523 -727.283)"/>
</svg>
