<svg xmlns="http://www.w3.org/2000/svg" viewBox="0 0 754.28 839.13">
    <path class="cls-1" d="M506.72,272.57a36.88,36.88,0,0,0-52.15-52.15L156.17,518.83a116,116,0,0,0,164.05,164L462.81,540.29h0l240-240c68.6-68.6,68.6-180.22,0-248.82s-180.22-68.6-248.82,0L124.52,380.93c-.59.59-1.13,1.23-1.67,1.85l-54,54C24.44,481.18,0,540.41,0,603.55S24.44,725.92,68.83,770.3s103.61,68.83,166.75,68.83S358,814.69,402.34,770.3L674,498.64a36.87,36.87,0,1,0-52.14-52.15L350.18,718.16A162.08,162.08,0,0,1,121,488.94L392.64,217.27c.6-.59,1.14-1.22,1.68-1.85L506.15,103.59A102.19,102.19,0,0,1,650.67,248.12l-84.18,84.19,0,0-298.4,298.4A42.25,42.25,0,0,1,208.32,571Z"/></svg>