<svg xmlns="http://www.w3.org/2000/svg" width="70.871" height="70.71" viewBox="0 0 70.871 70.71">
  <g id="call" transform="translate(0 -0.394)">
    <g id="Group_292" data-name="Group 292" transform="translate(0 0.394)">
      <g id="Group_291" data-name="Group 291" transform="translate(0 0)">
        <path id="Path_2655" data-name="Path 2655" d="M69.281,56.322,58.337,45.376a5.707,5.707,0,0,0-8.046.151L44.776,51.04c-.348-.192-.709-.393-1.088-.605a54.873,54.873,0,0,1-13.263-9.592,55.178,55.178,0,0,1-9.612-13.287c-.2-.369-.4-.725-.593-1.063l3.7-3.7,1.819-1.822a5.7,5.7,0,0,0,.147-8.047L14.942,1.982A5.7,5.7,0,0,0,6.9,2.133l-3.085,3.1.084.084A17.837,17.837,0,0,0,1.354,9.8,18.588,18.588,0,0,0,.223,14.35C-1.222,26.331,4.253,37.281,19.111,52.14,39.65,72.677,56.2,71.125,56.916,71.05a18.493,18.493,0,0,0,4.56-1.146,17.777,17.777,0,0,0,4.467-2.531l.067.06,3.125-3.06A5.712,5.712,0,0,0,69.281,56.322Z" transform="translate(0 -0.394)" fill="#8b9c68"/>
      </g>
    </g>
  </g>
</svg>
