<svg xmlns="http://www.w3.org/2000/svg" width="77.287" height="67.628" viewBox="0 0 77.287 67.628">
  <g id="camera" transform="translate(0 -30.522)">
    <path id="Path_424" data-name="Path 424" d="M199.655,201.263a9.661,9.661,0,1,1-13.663,0,9.661,9.661,0,0,1,13.663,0" transform="translate(-154.181 -141.343)" fill="#a85989"/>
    <path id="Path_425" data-name="Path 425" d="M67.626,40.183H60.951l-4.833-9.661H21.165l-4.828,9.666L9.671,40.2A9.678,9.678,0,0,0,.026,49.856L0,88.487A9.673,9.673,0,0,0,9.661,98.15H67.626a9.671,9.671,0,0,0,9.661-9.661V49.844A9.671,9.671,0,0,0,67.626,40.183ZM38.642,86.074A19.322,19.322,0,1,1,57.965,66.751,19.345,19.345,0,0,1,38.642,86.074Z" fill="#a85989"/>
  </g>
</svg>
