<svg xmlns="http://www.w3.org/2000/svg" width="73.153" height="73.199" viewBox="0 0 73.153 73.199">
  <g id="camera_source" transform="translate(0.505 0.593)">
    <path id="Path_434" data-name="Path 434" d="M561.174,405.133c.852,12.617-5.942,25.279-16.6,31.919-1.853-12.2-8.647-23.934-19.456-30.265,8.029-4.169,17.449-6.022,26.363-4.369A80.184,80.184,0,0,1,561.174,405.133Z" transform="translate(-489.103 -370.645)" fill="#e60031" stroke="#e60031" stroke-miterlimit="10" stroke-width="1"/>
    <path id="Path_435" data-name="Path 435" d="M561.171,256.4c-11.5-4.608-25.086-4.3-36.049,1.723.154-12.662,7.1-24.243,16.522-32.118A35.932,35.932,0,0,1,561.171,256.4Z" transform="translate(-489.103 -221.98)" fill="#399e00" stroke="#399e00" stroke-miterlimit="10" stroke-width="1"/>
    <path id="Path_436" data-name="Path 436" d="M435.211,204.019c-9.685,7.669-16.479,19.4-16.633,32.066-10.809-6.485-17.6-18.066-19.456-30.419,8.184-4.941,18.221-7.1,27.451-4.8A35.694,35.694,0,0,1,435.211,204.019Z" transform="translate(-382.559 -199.943)" fill="#ffa70e" stroke="#ffa70e" stroke-miterlimit="10" stroke-width="1"/>
    <path id="Path_437" data-name="Path 437" d="M327.885,267.413a43.1,43.1,0,0,1-35.984,1.708A36.6,36.6,0,0,1,308.422,237c1.544,9.11,5.4,18.066,12.1,24.657A68.324,68.324,0,0,0,327.885,267.413Z" transform="translate(-291.86 -231.281)" fill="#390095" stroke="#390095" stroke-miterlimit="10" stroke-width="1"/>
    <path id="Path_438" data-name="Path 438" d="M328.106,433.94c-.161,12.517-6.8,24.253-16.374,31.973-11.427-5.559-18.838-17.757-19.61-30.265,8.647,3.088,18.375,4.478,27.348,1.783A68.331,68.331,0,0,0,328.106,433.94Z" transform="translate(-292.081 -397.808)" fill="#009bb6" stroke="#009bb6" stroke-miterlimit="10" stroke-width="1"/>
    <path id="Path_439" data-name="Path 439" d="M454.935,464.289a35.846,35.846,0,0,1-35.813,1.679c9.574-7.875,16.213-19.456,16.368-31.963a42.943,42.943,0,0,1,16.94,20.569A80.121,80.121,0,0,1,454.935,464.289Z" transform="translate(-399.471 -397.862)" fill="#fac400" stroke="#fac400" stroke-miterlimit="10" stroke-width="1"/>
    <g id="camera" transform="translate(22.08 23.346)">
      <path id="Path_424" data-name="Path 424" d="M509.742,415.281a3.543,3.543,0,1,1-5.011,0,3.543,3.543,0,0,1,5.011,0h0" transform="translate(-493.064 -404.499)" fill="#fff"/>
      <path id="Path_425" data-name="Path 425" d="M459.658,354.679h-2.448l-1.773-3.543h-12.82l-1.771,3.545-2.445,0a3.55,3.55,0,0,0-3.538,3.542l-.009,14.169a3.548,3.548,0,0,0,3.543,3.544h21.26A3.547,3.547,0,0,0,463.2,372.4V358.223A3.547,3.547,0,0,0,459.658,354.679Zm-10.631,16.832a7.087,7.087,0,1,1,7.087-7.087A7.087,7.087,0,0,1,449.027,371.511Z" transform="translate(-434.854 -351.136)" fill="#fff"/>
    </g>
  </g>
</svg>
