<svg xmlns="http://www.w3.org/2000/svg" width="69.099" height="70.56" viewBox="0 0 69.099 70.56">
  <path id="chat" d="M85.825,742.71H42.709A12.987,12.987,0,0,0,29.72,755.7v28.278A13,13,0,0,0,42.709,796.97H48.9a.535.535,0,0,1,.536.531V811.45a1.82,1.82,0,0,0,3.145,1.249l14.637-15.562a.539.539,0,0,1,.389-.167H85.825a13,13,0,0,0,12.994-12.994V755.7A13,13,0,0,0,85.825,742.71Zm-6.962,28.8-13.8,13.808a1.141,1.141,0,0,1-1.613,0L49.671,771.544c0-.005,0-.005-.005-.005a8.44,8.44,0,0,1,.005-11.942,0,0,0,0,0,.005-.005,8.447,8.447,0,0,1,11.942.005l1.83,1.835a1.135,1.135,0,0,0,1.608,0l1.866-1.866.005-.005a8.445,8.445,0,0,1,11.937.005,0,0,0,0,1,.005.005A8.442,8.442,0,0,1,78.863,771.513Z" transform="translate(-29.72 -742.71)" fill="#a85989"/>
</svg>
