<svg xmlns="http://www.w3.org/2000/svg" width="73.153" height="73.199" viewBox="0 0 73.153 73.199">
  <g id="gallery_source" transform="translate(0.505 0.593)">
    <path id="Path_426" data-name="Path 426" d="M577.052,961.129c.853,12.617-5.942,25.279-16.6,31.919-1.853-12.2-8.647-23.934-19.456-30.265,8.029-4.169,17.449-6.022,26.363-4.369A80.169,80.169,0,0,1,577.052,961.129Z" transform="translate(-504.981 -926.641)" fill="#520056" stroke="#520056" stroke-miterlimit="10" stroke-width="1"/>
    <path id="Path_427" data-name="Path 427" d="M577.049,812.395c-11.5-4.608-25.086-4.3-36.049,1.723.154-12.662,7.1-24.243,16.522-32.118a35.934,35.934,0,0,1,19.527,30.395Z" transform="translate(-504.981 -777.976)" fill="#780078" stroke="#780078" stroke-miterlimit="10" stroke-width="1"/>
    <path id="Path_428" data-name="Path 428" d="M451.089,760.015c-9.684,7.669-16.479,19.4-16.633,32.066-10.809-6.485-17.6-18.066-19.456-30.419,8.184-4.941,18.221-7.1,27.451-4.8A35.694,35.694,0,0,1,451.089,760.015Z" transform="translate(-398.437 -755.939)" fill="#4c0048" stroke="#4c0048" stroke-miterlimit="10" stroke-width="1"/>
    <path id="Path_429" data-name="Path 429" d="M343.763,823.41a43.1,43.1,0,0,1-35.984,1.708A36.6,36.6,0,0,1,324.3,793c1.544,9.11,5.4,18.066,12.1,24.657A68.348,68.348,0,0,0,343.763,823.41Z" transform="translate(-307.738 -787.277)" fill="#780066" stroke="#780066" stroke-miterlimit="10" stroke-width="1"/>
    <path id="Path_430" data-name="Path 430" d="M343.984,989.937c-.161,12.517-6.8,24.252-16.374,31.973-11.427-5.559-18.838-17.757-19.61-30.265,8.647,3.088,18.375,4.478,27.348,1.783A68.334,68.334,0,0,0,343.984,989.937Z" transform="translate(-307.959 -953.805)" fill="#bb008f" stroke="#bb008f" stroke-miterlimit="10" stroke-width="1"/>
    <path id="Path_431" data-name="Path 431" d="M470.813,1020.285A35.847,35.847,0,0,1,435,1021.963c9.574-7.875,16.213-19.456,16.368-31.963a42.942,42.942,0,0,1,16.94,20.569A80.115,80.115,0,0,1,470.813,1020.285Z" transform="translate(-415.349 -953.858)" fill="#710073" stroke="#710073" stroke-miterlimit="10" stroke-width="1"/>
    <g id="Group_9" data-name="Group 9" transform="translate(21.884 21.75)">
      <g id="Group_8" data-name="Group 8">
        <path id="Path_432" data-name="Path 432" d="M453.816,952.843V940.678h-1.864a2.5,2.5,0,0,0-2.487,2.5v16.448a2.486,2.486,0,0,0,2.487,2.493H468.4a2.5,2.5,0,0,0,2.508-2.493v-1.8H458.8A5.013,5.013,0,0,1,453.816,952.843Z" transform="translate(-449.465 -933.902)" fill="#fff"/>
        <path id="Path_433" data-name="Path 433" d="M512.7,896.8H496.249a2.5,2.5,0,0,0-2.5,2.493v16.448a2.507,2.507,0,0,0,2.5,2.5H512.7a2.5,2.5,0,0,0,2.492-2.5V899.291A2.492,2.492,0,0,0,512.7,896.8Zm-.338,17.56a.776.776,0,0,1-.689.4H497.576a.774.774,0,0,1-.75-1l2.016-6.669a1.2,1.2,0,0,1,2.13-.347l2.819,3.961a1.2,1.2,0,0,0,1.655.3l2.6-1.763a1.2,1.2,0,0,1,1.682.338l2.6,3.982A.776.776,0,0,1,512.359,914.358Z" transform="translate(-486.909 -896.798)" fill="#fff"/>
      </g>
    </g>
  </g>
</svg>
