<svg xmlns="http://www.w3.org/2000/svg" width="39.385" height="66.011" viewBox="0 0 39.385 66.011">
  <g id="journal" transform="translate(-6.968)">
    <path id="Path_420" data-name="Path 420" d="M9.719,7.717V3.179A3.18,3.18,0,0,1,12.895,0H40.425A3.18,3.18,0,0,1,43.6,3.179V7.717a3.177,3.177,0,0,1-3.177,3.175H12.895A3.176,3.176,0,0,1,9.719,7.717ZM46.2,35.5,39.89,16.083a3.177,3.177,0,0,0-3.021-2.191H16.454a3.181,3.181,0,0,0-3.021,2.191L7.121,35.5a3.193,3.193,0,0,0,.31,2.635L23.949,65.2a3.146,3.146,0,0,0,.741.806V38.763a6.449,6.449,0,1,1,3.938,0V66.011a3.223,3.223,0,0,0,.743-.806L45.89,38.136A3.194,3.194,0,0,0,46.2,35.5Z" transform="translate(0)" fill="#a85989"/>
  </g>
</svg>
