<svg xmlns="http://www.w3.org/2000/svg" width="70.219" height="70.258" viewBox="0 0 70.219 70.258">
  <g id="logo" transform="translate(-255.445 -751.292)">
    <path id="Path_1" data-name="Path 1" d="M275.173,846.469l-1.358-1.976c-.069-.918.691-.989,1.269-1.2a25.841,25.841,0,0,1,3.482-.893c4.724-1.03,9.314-2.55,13.971-3.822,2.126-.581,4.183-1.474,6.465-1.41.766.021,1.518.869,2.3.068a8.18,8.18,0,0,0,2.663-1.568,1.691,1.691,0,0,1,1.083-.722c7.007-1.836,13.919-4.005,20.9-5.928,2.512-.692,5.21-.093,7.821-.2,1.006-.1,1.99-.61,3.027-.17.338.441,1.313.451,1.035,1.276-.238.709-.917.847-1.62.753a35.567,35.567,0,0,1-4.815.149c-.54.035-1.115-.184-1.615.191-.667.216-1.232.735-1.994.67-1.6-.128-3.025.6-4.5,1.022q-16.2,4.646-32.416,9.221C285.628,843.4,280.39,844.9,275.173,846.469Z" transform="translate(-12.217 -51.338)" fill="#935b7b"/>
    <path id="Path_2" data-name="Path 2" d="M277.88,851.741c1-1.38,2.679-1.244,4.048-1.644,10.747-3.148,21.532-6.165,32.3-9.237,4.848-1.382,9.682-2.818,14.539-4.165.517-.143,1.3-.717,1.726.264-.655.577-.159.846.272,1.215.56.479,1.218,1,.454,1.835a2.4,2.4,0,0,0-2.942-.759c-7.156,2.112-14.334,4.15-21.516,6.175-8.519,2.4-17.039,4.8-25.544,7.254-.7.2-1.342.527-2.015.785C278.695,852.942,278.021,852.546,277.88,851.741Z" transform="translate(-14.923 -56.61)" fill="#8f5978"/>
    <path id="Path_3" data-name="Path 3" d="M281.832,857.365c.742-1.736,2.538-1.3,3.844-1.739,3.46-1.154,7.01-2.042,10.524-3.034q8.384-2.367,16.767-4.735c3.245-.922,6.48-1.881,9.721-2.815q4.7-1.355,9.4-2.689c1.378-.391,1.609.542,1.755,1.557l-.014-.021c-.65.334-1.42-.135-2.053.309l-1.557,1.043a33.514,33.514,0,0,0-7.106,1.722c-8.769,2.5-17.536,5.005-26.318,7.46-4.652,1.3-9.318,2.574-13.9,4.124A2.175,2.175,0,0,1,281.832,857.365Z" transform="translate(-17.552 -60.511)" fill="#8c5876"/>
    <path id="Path_4" data-name="Path 4" d="M275.9,762.805a23.84,23.84,0,0,1,10.066-7.031c.817,1.667,1.723,3.23.966,5.291-.366,1,.188,2.265.025,3.419-3.29-.376-5.905.58-7.395,3.753a1.175,1.175,0,0,1-1.621-.373A7.134,7.134,0,0,1,275.9,762.805Z" transform="translate(-13.604 -2.982)" fill="#c4739d"/>
    <path id="Path_5" data-name="Path 5" d="M299.645,877.6a5.008,5.008,0,0,1-1.969-1.171c-.649-1.369.536-1.542,1.293-1.765q2.725-.8,5.466-1.564c10.683-2.988,21.33-6.1,32.021-9.063.779-.216,1.8-.962,2.389.393-.29,1.051.94,1.446,1.009,2.341a4.767,4.767,0,0,0-3.606.045c-6.3,1.844-12.617,3.631-18.922,5.457-5.288,1.532-10.629,2.881-15.9,4.464A3.882,3.882,0,0,0,299.645,877.6Z" transform="translate(-27.967 -74.73)" fill="#81526f"/>
    <path id="Path_6" data-name="Path 6" d="M335.686,859.512c-.452-.513-1.011-.368-1.544-.215-4.838,1.388-9.668,2.8-14.509,4.179q-10.119,2.879-20.249,5.718c-1.219.344-2.442.676-3.662,1.019-.662.186-1.319.387-1.205,1.3a4.385,4.385,0,0,1-1.7-1.262c-.406-1.493.875-1.484,1.665-1.719,4.222-1.253,8.47-2.412,12.711-3.6,9.716-2.724,19.391-5.594,29.121-8.272.915-.252,1.91-.867,2.779.157.325.393.444.988-.156.952C337.429,857.677,336.741,858.894,335.686,859.512Z" transform="translate(-24.808 -69.812)" fill="#845471"/>
    <path id="Path_7" data-name="Path 7" d="M336.458,854.315c-1.686-.52-3.139.435-4.632.853-10.558,2.958-21.083,6.034-31.626,9.046-2.765.79-5.565,1.456-8.332,2.242-.683.194-1.647.189-1.685,1.293-.627-.132-.815-.806-1.329-1.078-.368-1.256.693-1.353,1.4-1.591,3.166-1.067,6.4-1.907,9.619-2.8,10.562-2.943,21.089-6.014,31.645-8.978.751-.211,1.479-.493,2.209-.763a1.228,1.228,0,0,1,.511-.041c.464.188.736.677,1.245.8A1.035,1.035,0,0,1,336.458,854.315Z" transform="translate(-22.173 -67.311)" fill="#875573"/>
    <path id="Path_8" data-name="Path 8" d="M303.745,881.7c-.278-.656.107-.914.65-1.055,4.234-1.1,8.415-2.389,12.652-3.484,5.3-1.372,10.535-3.02,15.8-4.558,3.031-.886,6.08-1.721,9.074-2.722,1.183-.4,1.3.806,2.037.99.457.936-.1,1.046-.825,1.006-2.387-.131-2.387-.133-2.506,2.348-.655.08-.637-.471-.8-.85-.333-1.175-1.178-.593-1.765-.422-4.8,1.4-9.617,2.733-14.425,4.1-4.861,1.38-9.7,2.826-14.587,4.124a6.079,6.079,0,0,0-3.281,1.493A3.937,3.937,0,0,1,303.745,881.7Z" transform="translate(-32.067 -78.83)" fill="#7f516d"/>
    <path id="Path_9" data-name="Path 9" d="M387.66,811.7c1.807.165,3.108-1.093,4.6-1.746q2.6-1.142,5.277-2.047c.91-.307,2.25-.652,2.706.441.514,1.234-.741,1.807-1.693,2.245a22.118,22.118,0,0,1-2.336.791,24.366,24.366,0,0,0-5.508,1.249c-4.633,1.4-9.341,2.534-13.956,4a38.641,38.641,0,0,1-7.094,1.464c.085-.658.533-.929,1.121-1.064a14.728,14.728,0,0,0,3.648-1.609c1.306-1.316,3.14-1.276,4.746-1.788,2.16-.688,4.378-1.2,6.541-1.893A2.828,2.828,0,0,1,387.66,811.7Z" transform="translate(-75.967 -37.459)" fill="#9b6080"/>
    <path id="Path_10" data-name="Path 10" d="M347.1,879.35c.013.375-.053.778.361,1.009q.006.276.012.553c.168,1.647.168,1.647-1.44,1.476-.738.1-1.325-.367-1.993-.533-.69-.172-1.276-.209-1.589.581a3.984,3.984,0,0,0-1.656.106c-8.516,2.454-17.089,4.711-25.558,7.332a.394.394,0,0,1-.278-.15c-.368-.274-1.089-.2-1.023-.9.055-.579.584-.788,1.054-.956,2.732-.975,5.563-1.617,8.345-2.422,7.171-2.075,14.33-4.2,21.545-6.122C345.614,879.129,346.362,878.74,347.1,879.35Z" transform="translate(-38.9 -84.962)" fill="#7b4f6a"/>
    <path id="Path_11" data-name="Path 11" d="M367.171,824.959c3.574-1.383,7.385-1.9,11.03-3.06,4.441-1.409,8.976-2.521,13.47-3.763a2.09,2.09,0,0,1,2.057.114A33.073,33.073,0,0,1,390.5,819.8c-.78.3-1.933.492-1.747,1.822a6.636,6.636,0,0,0-3.546.31c-5.653,1.479-11.2,3.309-16.849,4.8-.857.227-1.47,1.029-2.433.913A10.4,10.4,0,0,1,367.171,824.959Z" transform="translate(-73.487 -44.32)" fill="#985e7f"/>
    <path id="Path_12" data-name="Path 12" d="M344.232,877.856c-3.1.4-6.013,1.533-9,2.362-7.648,2.123-15.259,4.38-22.9,6.533-1.377.388-1.171.818-.244,1.477a4.33,4.33,0,0,1-2.357-.921c-.437-1.122.506-1.2,1.132-1.375,3.084-.881,6.191-1.681,9.274-2.565,4.622-1.326,9.2-2.8,13.857-4.012,2.841-.74,5.627-1.652,8.462-2.394C343.176,876.773,344.231,876.4,344.232,877.856Z" transform="translate(-36.036 -83.469)" fill="#7c4f6b"/>
    <path id="Path_13" data-name="Path 13" d="M331.89,850.764h-.332c-14.448,4.191-28.946,8.21-43.4,12.371-.856.246-1.753.4-2.136,1.367l-.993-1.048c.315-.978,1.3-1.012,2.009-1.22,5.625-1.646,11.279-3.2,16.924-4.779q11.425-3.2,22.849-6.4c1.328-.374,2.637-.812,3.958-1.211.575-.173,1.187-.472,1.583.307l-.026-.012C331.98,850.207,332.132,850.621,331.89,850.764Z" transform="translate(-19.677 -65.416)" fill="#8a5774"/>
    <path id="Path_14" data-name="Path 14" d="M364.035,833.479c1.9-1.868,4.555-1.838,6.872-2.6,4.525-1.483,9.152-2.649,13.717-4.014.949-.284,1.683-.355,2.239.582l6.329.027q.172.1.114.21c-.038.07-.076.1-.115.1-4.459-.4-8.673.607-12.9,1.947-5.589,1.774-11.229,3.4-16.945,4.74l-.264-.664a.18.18,0,0,1,.312,0Z" transform="translate(-71.599 -50.147)" fill="#955d7d"/>
    <path id="Path_15" data-name="Path 15" d="M317.825,895.31c.231-.8.977-.865,1.587-1.038q12.124-3.445,24.258-6.855c.586-.166,1.2-.574,1.369.455q-.007.466-.013.932c-3.034,1.06-6.17,1.769-9.246,2.687q-6.706,2-13.477,3.773a12.037,12.037,0,0,0-1.748.935A10.559,10.559,0,0,1,317.825,895.31Z" transform="translate(-41.494 -90.4)" fill="#784d68"/>
    <path id="Path_16" data-name="Path 16" d="M358.51,898.146a.115.115,0,0,1,.036.188c-.041.771.684,1.689-.431,2.254l.009-.008c-.283-.535-.867-.525-1.33-.735l.028.013a3.068,3.068,0,0,0-2.341-.021,3.9,3.9,0,0,0-2.371,3.92c.086,2.7-.007,5.412-.023,8.118a.347.347,0,0,1-.478-.16,6.144,6.144,0,0,1-.267-2.53q-.028-.983,0-1.966c-.01-.648-.017-1.3.006-1.944-.005-.451-.007-.9.007-1.354-.006-.344-.007-.688.015-1.031.014-.556.108-1.31-.781-1.023-3.945,1.274-8.127,1.793-11.866,3.718l-2.031-.948c-.383-1.246.624-1.413,1.371-1.609,3.051-.8,6.058-1.748,9.095-2.6,2.713-.759,5.445-1.461,8.119-2.355a4.673,4.673,0,0,1,2.767-.242A2.654,2.654,0,0,1,358.51,898.146Z" transform="translate(-53.987 -97.398)" fill="#724a64"/>
    <path id="Path_17" data-name="Path 17" d="M265.843,776.773c.491,1.212.978,2.424,1.472,3.634a2.725,2.725,0,0,0,2.19,1.8,14,14,0,0,0-.3,4.015c-.652.01-.615-.522-.737-.93.059-1.267-.507-1.526-1.644-1.109-1.352.5-2.789.71-4.174,1.108-.611.176-1.281.484-1.879-.089A20.4,20.4,0,0,1,265.843,776.773Z" transform="translate(-3.545 -16.95)" fill="#c1759c"/>
    <path id="Path_18" data-name="Path 18" d="M391.5,951.623a15.627,15.627,0,0,1,8.374,2.839c-5.549.175-11.007-.78-16.5-1.151-1.665-.413-3.383.1-5.05-.281l.014.024c-.8-1.065.183-1.08.748-1.131,1.542-.14,3.095-.035,4.643-.062a8.126,8.126,0,0,0,2.632-.208A23.7,23.7,0,0,1,391.5,951.623Z" transform="translate(-81.541 -133.167)" fill="#955787"/>
    <path id="Path_19" data-name="Path 19" d="M287.968,866.547c-.138-1.4,1-1.414,1.863-1.657,6.723-1.9,13.457-3.76,20.179-5.664,7.257-2.056,14.5-4.149,21.758-6.218a2.58,2.58,0,0,1,1.739-.2c-2.381,1.547-5.2,1.824-7.833,2.6-10.3,3.043-20.663,5.9-31,8.828-1.758.5-3.5,1.05-5.259,1.548-.571.162-1.074.332-1.109,1.037C288.08,866.872,288,866.74,287.968,866.547Z" transform="translate(-21.626 -67.464)" fill="#895774"/>
    <path id="Path_20" data-name="Path 20" d="M310.587,852.6c-.158.138-.336.413-.471.393-4.427-.653-8.209,1.73-12.3,2.62-3.341.726-6.532,2.076-9.958,2.474l-.088-.236a4.413,4.413,0,0,1,2.681-2.5c3.9-.673,7.6-2.107,11.43-3.035,1.207-.292,2.349-1.076,3.686-.607A15.858,15.858,0,0,0,310.587,852.6Z" transform="translate(-21.499 -66.7)" fill="#955d7d"/>
    <path id="Path_21" data-name="Path 21" d="M306.7,761.5a4.481,4.481,0,0,1-.408-3.775,3.9,3.9,0,0,0-.339-3.394,1.47,1.47,0,0,1-.244-1.541,14.942,14.942,0,0,1,7.373-1.486.444.444,0,0,1-.04.443c-1.073,2.148-2.717,2.969-5.26,1.788.357,1.311,1.385,2.1,1.148,2.934-.506,1.779.158,3.5-.069,5.231-.042.067-.084.133-.127.2Z" transform="translate(-33.343)" fill="#c5719f"/>
    <path id="Path_22" data-name="Path 22" d="M310.251,849.2c-4.436,1.274-8.876,2.535-13.3,3.836a7.521,7.521,0,0,1-2.133.159c.039-1.031.838-1.445,1.559-1.925a8.626,8.626,0,0,0,1.4-.831,1.7,1.7,0,0,1,.469-.127c2.555-.7,5.166-1.222,7.658-2.124,1.536-.556,2.882-.7,4.036.679C310.126,848.895,310.268,848.971,310.251,849.2Z" transform="translate(-26.187 -64.186)" fill="#985f7f"/>
    <path id="Path_23" data-name="Path 23" d="M342.924,912.592c.01-.877.676-1.045,1.327-1.228,3.395-.959,6.81-1.851,10.175-2.9,1.528-.479,2.025-.2,1.58,1.38-1.388.909-3.159.836-4.532,1.78-1.314-.234-2.336.45-3.377,1.081a6.7,6.7,0,0,0-3.473,1.135Z" transform="translate(-58.189 -104.403)" fill="#6e4862"/>
    <path id="Path_24" data-name="Path 24" d="M397.133,814.572c-3.938.947-7.713,2.509-11.746,3.1-.549.08-.879.7-1.494.624l1.293-1.348c1.552-2.541,4.235-2.407,6.683-2.826a3.016,3.016,0,0,0,3.455-1.484l.008-.012c.881-.309,1.752-1.4,2.652-.03C397.485,813.161,396.51,813.524,397.133,814.572Z" transform="translate(-85.44 -40.327)" fill="#9d6182"/>
    <path id="Path_25" data-name="Path 25" d="M301.935,835.629c.807.711,1.983-.13,2.771.66a13.885,13.885,0,0,1-4.49,1.9c-.778.183-1.512.421-1.359,1.472a.568.568,0,0,1-.506.419c-1.155-.672-2.246.251-3.379.144-1.338-.341-2.733.466-4.054-.2.2-1.582,1.568-1.9,2.692-2.49,2.127-.42,4.175-1.127,6.25-1.736C300.529,835.6,301.207,835.213,301.935,835.629Z" transform="translate(-23.595 -55.976)" fill="#a16485"/>
    <path id="Path_26" data-name="Path 26" d="M266.294,801.459c.017.363-.054.755.329,1l.379,1.338c-3.39.825-6.639,2.176-10.112,2.69a2.5,2.5,0,0,1,.336-1.687,2.418,2.418,0,0,1,2.036-2.05c1.914-.552,3.858-.979,5.781-1.489A1.261,1.261,0,0,1,266.294,801.459Z" transform="translate(-0.96 -33.185)" fill="#bb7197"/>
    <path id="Path_27" data-name="Path 27" d="M348,922.25c.677-1.556,2.04-1.366,3.348-1.316a.767.767,0,0,1,.222.46,5.31,5.31,0,0,0,.156,2.581,23.411,23.411,0,0,1-.1,5.468,1.725,1.725,0,0,1-1.139.838,3.679,3.679,0,0,1-1.119.107,1.27,1.27,0,0,1-1.162-.573c-.138-.5.29-.8.421-1.2l.587-2.023a2.385,2.385,0,0,0,.1-2.306Z" transform="translate(-61.567 -112.819)" fill="#6c4861"/>
    <path id="Path_28" data-name="Path 28" d="M289.851,829.915a6.538,6.538,0,0,1,2.251,1.007,7.37,7.37,0,0,1-2.773.963,10.105,10.105,0,0,0-2.842,1.279,9.673,9.673,0,0,1-2.611.366,5.111,5.111,0,0,0-2.728.185,2.5,2.5,0,0,1-1.906.034c-.273-1.727,1.314-1.832,2.212-2.541,2.058-.608,4.22-.833,6.2-1.724C288.45,829.13,289.141,829.657,289.851,829.915Z" transform="translate(-15.809 -51.933)" fill="#a76789"/>
    <path id="Path_29" data-name="Path 29" d="M256.262,811.675c3.3-1.172,6.526-2.6,10.112-2.69a2.735,2.735,0,0,1,.743,1.311c-1.1.931-2.512,1.051-3.808,1.443-1.79.542-3.567,1.135-5.389,1.567-.614.145-1.17.361-1.237,1.116-.15.316-.245.7-.736.6A9.2,9.2,0,0,1,256.262,811.675Z" transform="translate(-0.332 -38.376)" fill="#b76f94"/>
    <path id="Path_30" data-name="Path 30" d="M265.382,856.135c-.3-.393-.71-.724-.689-1.287-.344-.758.106-1.2.706-1.407a9.181,9.181,0,0,1,4.15-.9c1.207.059,1.611-1.227,2.588-1.553a2.989,2.989,0,0,1,2.982.143.639.639,0,0,1-.145.7,4.487,4.487,0,0,0-1.125,1.242c-1.089,1.307-.959,3.125-1.889,4.5-.714-.318-.6-.969-.629-1.559.007-.439.218-.852.248-1.364C269.377,854.792,267.463,855.82,265.382,856.135Z" transform="translate(-6.072 -66.094)" fill="#9c6182"/>
    <path id="Path_31" data-name="Path 31" d="M345.342,766.711l-.006.332a13.91,13.91,0,0,0-2.233,1.508,1.374,1.374,0,0,0-.435.691,1.1,1.1,0,0,1-.335.552.82.82,0,0,1-.813-.314,1.75,1.75,0,0,1-.355-.861,3.039,3.039,0,0,1,.625-1.5,1.02,1.02,0,0,0-.451-1.632,3.045,3.045,0,0,1-.371-.234,2.409,2.409,0,0,1-.555-.636,2.337,2.337,0,0,0-.717-.7,1.486,1.486,0,0,1-.3-.31,2.757,2.757,0,0,1-.411-1.043,1.481,1.481,0,0,1,.226-1.121c1.038-.133,2.206.712,3.114-.413l.67.332a2.208,2.208,0,0,1,.5,1.529c-.021.334.02.806.3.9C345.249,764.3,345.118,765.587,345.342,766.711Z" transform="translate(-55.556 -6.475)" fill="#cc69a6"/>
    <path id="Path_32" data-name="Path 32" d="M306.91,844.81l.378-.322a23.018,23.018,0,0,1,5.326-1.717,1.525,1.525,0,0,1,1.733.7l1.619,2.024c-1.458-.989-2.849-.7-4.413-.078-2.119.844-4.461,1.033-6.591,1.906-.434.178-.739-.042-1.081-.2C304.336,845.617,305.541,845.105,306.91,844.81Z" transform="translate(-32.219 -60.81)" fill="#9b6181"/>
    <path id="Path_33" data-name="Path 33" d="M343.211,833.72c-.433-.259-.655.056-.892.328-.612.437.135,1.227-.435,1.675-.063-.362-.107-.728-.193-1.085-.075-.313.161-.853-.424-.816-.138.009-.244.53-.364.815-.371.606.086,1.338-.295,1.943-.5-.492-.169-1.133-.3-1.691-.081-.334.1-.864-.453-.881-.522-.016-.453.5-.553.844.033.5.511,1.1-.317,1.4-1.243-2.775-.625-3.766,2.512-4.027.532-.2.047-.867.5-1.11a1.507,1.507,0,0,1,1.31-.106,2.327,2.327,0,0,0,2.025,1.235c1.363-.005,2.175.507,1.913,2.032a.547.547,0,0,1-.157.025c-.339-.048-.174-.437-.386-.574a.429.429,0,0,1-.115.638c-.291-.584-.585-1.156-1.235-.31-.508.266-.087.733-.233,1.078-.031.305.094.644-.2.888-.716-.663.41-2.062-.982-2.454C343.645,833.406,343.448,833.658,343.211,833.72Z" transform="translate(-55.166 -52.961)" fill="#975f80"/>
    <path id="Path_34" data-name="Path 34" d="M279.3,822.62l1.317,1.011a1.553,1.553,0,0,1-1.211.98,7.582,7.582,0,0,0-2.669,1.451,2.669,2.669,0,0,0-2.514.444c-.63.335-1.141.922-1.932.918-.727-.506-1.724.249-2.4-.512a2.578,2.578,0,0,1,1.767-2.621,41.208,41.208,0,0,0,5.91-1.558C278.136,822.577,278.7,822.2,279.3,822.62Z" transform="translate(-9.609 -47.318)" fill="#ad6a8d"/>
    <path id="Path_35" data-name="Path 35" d="M266.964,798.284c-2.646.68-5.287,1.388-7.944,2.025-.762.183-.592,1.017-1.125,1.313a8.39,8.39,0,0,1,.964-3.361,40.685,40.685,0,0,0,6.069-1.493C266.982,796.168,266.964,796.108,266.964,798.284Z" transform="translate(-1.631 -30.011)" fill="#be749a"/>
    <path id="Path_36" data-name="Path 36" d="M352.232,893.292l.319.337c-1.4,1.126-3.194,1.221-4.812,1.689-6.128,1.768-12.288,3.428-18.373,5.349-.264.03-.533.085-.712-.2-.378-1,.25-1.226,1.026-1.466,4.025-1.243,8.1-2.3,12.149-3.471,2.662-.771,5.342-1.478,7.986-2.31A2.853,2.853,0,0,1,352.232,893.292Z" transform="translate(-48.621 -94.253)" fill="#764c67"/>
    <path id="Path_37" data-name="Path 37" d="M261.678,835.415c.721.51,1.757-1.157,2.336.337a3.366,3.366,0,0,1-.987,2.672c-1.813-.209-3.43.5-5.077,1.081a2.129,2.129,0,0,1-.329-1.338,4.952,4.952,0,0,1-.145-1.613c.444-1.65,1.659-1.541,2.937-1.292.335.143.657.367,1.054.2C261.538,835.444,261.608,835.43,261.678,835.415Z" transform="translate(-1.352 -55.757)" fill="#a9688b"/>
    <path id="Path_38" data-name="Path 38" d="M350.526,892.634c-3.075-.063-5.814,1.341-8.71,2.044-3.542.859-6.995,2.082-10.533,2.96a35.7,35.7,0,0,1-3.646,1.14c-.5.07-.638.568-.689,1.035-.338-.107-.739-.067-.971-.419.053-.935.784-1.141,1.484-1.338q10.5-2.961,21-5.887a10.537,10.537,0,0,1,1.983-.169Q350.488,892.317,350.526,892.634Z" transform="translate(-46.916 -93.595)" fill="#764c67"/>
    <path id="Path_39" data-name="Path 39" d="M327.674,754.563c-.791,1.462-1.44,1.532-3.013.326-.061-.045-.123-.09-.185-.134-.219-.237-.326-.566-.6-.757-.479-.336-.96-.9-1.564-.674s-.154.99-.413,1.451a2.344,2.344,0,0,1-.312.614,3.43,3.43,0,0,1-.846.764c-.65.49-1.471.32-2.187.566a1.887,1.887,0,0,1-1.14-.4c-.808-1.361-.663-1.59,1.065-1.691.606.219,1.192.691,1.852.1.606-.545.273-1.112.068-1.681a2,2,0,0,1,.244-1.5q0-.109,0-.218a6.025,6.025,0,0,1,2.675.541c.5.325,1.109.374,1.609.687Z" transform="translate(-40.904 -0.012)" fill="#ca6da3"/>
    <path id="Path_40" data-name="Path 40" d="M257,816.952c.067-.508-.191-1.118.623-1.33,3.4-.887,6.8-1.81,10.2-2.721a3.059,3.059,0,0,1,.988,1.357,7.409,7.409,0,0,0-3.791,1.553,4,4,0,0,1-1.727.348c-1.214-.258-2.291.278-3.418.562C258.937,816.955,258.013,817.6,257,816.952Z" transform="translate(-1.035 -40.981)" fill="#b46e93"/>
    <path id="Path_41" data-name="Path 41" d="M331,901.938c.061-.781.775-.749,1.242-.883,5.663-1.627,11.35-3.173,17-4.832a41.511,41.511,0,0,1,4.94-1.323c.836.182.617.82.594,1.373h-.342c-.773-.647-1.595-.293-2.37-.058-5.612,1.695-11.257,3.271-16.912,4.813a9.223,9.223,0,0,0-3.183,1.374Z" transform="translate(-50.259 -95.524)" fill="#744b65"/>
    <path id="Path_42" data-name="Path 42" d="M333.074,794.406l-.345-.993a1.844,1.844,0,0,1,2.177-1.127,5.144,5.144,0,0,0,5.349-2.56c.655-.354,1.079-.255,1.094.579.013.724.009,1.448,0,2.171-.926,1.085-2.522.943-3.509,1.915-.433-.1-.345-1.046-1.074-.654-.243.453.09,1.027-.3,1.45a1.24,1.24,0,0,1-1.005.076C334.738,794.77,333.775,794.95,333.074,794.406Z" transform="translate(-51.407 -25.437)" fill="#bc6998"/>
    <path id="Path_43" data-name="Path 43" d="M307.168,954.854l-.143.045-.148-.024c-1.216.406-2.507-.117-3.722.3l-1.246.05c-.558.285-1.2-.023-1.758.244a51.874,51.874,0,0,1-9.511.76c.319-1.221,1.413-.941,2.018-1.412.574-.163,1.174-.169,1.755-.29,1.741-.336,3.529.105,5.265-.315a4.974,4.974,0,0,1,1.15-.144,34.456,34.456,0,0,0,4.754-.145,4.084,4.084,0,0,1,.8-.134,2.673,2.673,0,0,1,1.289.178.489.489,0,0,1,.27.4C307.85,954.787,307.371,954.6,307.168,954.854Z" transform="translate(-23.411 -134.691)" fill="#9f648f"/>
    <path id="Path_44" data-name="Path 44" d="M333.9,903.364c.044-.695.554-.91,1.11-1.069q5.842-1.673,11.685-3.339c2.715-.771,5.425-1.567,8.164-2.245.427-.106,1.507-1.018,1.507.524-2.084-.324-3.869.8-5.773,1.275-4.535,1.127-9.015,2.479-13.5,3.8-.836.245-1.98.165-2.2,1.422C334.568,903.592,334.145,903.723,333.9,903.364Z" transform="translate(-52.188 -96.487)" fill="#744b65"/>
    <path id="Path_45" data-name="Path 45" d="M261.084,848.4a1.111,1.111,0,0,1-.357-.928c-.34-1.115.478-1.446,1.239-1.773a27.074,27.074,0,0,0,3.4-1.2,2.343,2.343,0,0,1,.76-.218c.855.014,1.694-.5,2.564-.092.542.628-.151,1.1-.21,1.648-.438.65-.333,1.683-1.347,1.931a1.459,1.459,0,0,0-1.892-.5C263.866,847.686,262.489,848.1,261.084,848.4Z" transform="translate(-3.461 -61.689)" fill="#a36587"/>
    <path id="Path_46" data-name="Path 46" d="M411.736,776.947a6.031,6.031,0,0,1,1.657-2.344,5.036,5.036,0,0,1,2.259-1.351c2.023-.733,2.551-.247,2.2,1.975l-.38.743C415.627,776.7,413.838,777.743,411.736,776.947Z" transform="translate(-103.961 -14.396)" fill="#b26d91"/>
    <path id="Path_47" data-name="Path 47" d="M434.072,790.214c-.034.191-.116.331-.339.323-1.93.274-3.69,1.254-5.66,1.364a21.3,21.3,0,0,1,2.871-4.05c1.669-.886,2.633-.677,3.181.687l-.019-.023A2.183,2.183,0,0,1,434.072,790.214Z" transform="translate(-114.828 -23.963)" fill="#a7678a"/>
    <path id="Path_48" data-name="Path 48" d="M320.314,840.312a3.637,3.637,0,0,0-3.364.188,12.183,12.183,0,0,1-3.7.834c-.611-.826-.61-1.468.579-1.609,1.939-.231,3.539-1.491,5.462-1.754C320.158,838.524,320.072,839.489,320.314,840.312Z" transform="translate(-38.186 -57.656)" fill="#9e6283"/>
    <path id="Path_49" data-name="Path 49" d="M305.793,949.244a12.317,12.317,0,0,1,3.721-.984c3.46-.626,6.991-.715,10.45-1.358a1.743,1.743,0,0,1,.233.883,1.48,1.48,0,0,1-1.419,1.206c-3.912.518-7.859.515-11.791.726A1.323,1.323,0,0,1,305.793,949.244Z" transform="translate(-33.49 -130.115)" fill="#b07898"/>
    <path id="Path_50" data-name="Path 50" d="M394.687,808.453l.632-1c.49-.314.437-.947.79-1.341l-.015.01a13.041,13.041,0,0,1,3.829-1.309c.567-.152,1.329-.276,1.555.638a13.29,13.29,0,0,1-2.292,3.144,4.228,4.228,0,0,0-2.463.036C396.039,808.781,395.313,809.1,394.687,808.453Z" transform="translate(-92.62 -35.528)" fill="#a36587"/>
    <path id="Path_51" data-name="Path 51" d="M409.046,782.973c1.992.147,3.755-1.046,5.734-.977-.294.775-.215,1.71-.979,2.283-1.464.3-2.849.9-4.329,1.121a2.383,2.383,0,0,1-1.78-.069A6.269,6.269,0,0,1,409.046,782.973Z" transform="translate(-101.271 -20.422)" fill="#af6c8f"/>
    <path id="Path_52" data-name="Path 52" d="M282.578,820.208c-2.58.691-5.006,1.986-7.762,1.989.015-1.456.957-2.12,2.177-2.548,1.392-.343,2.713-1.069,4.222-.779C281.47,819.518,282.431,819.449,282.578,820.208Z" transform="translate(-12.885 -44.906)" fill="#af6c8f"/>
    <path id="Path_53" data-name="Path 53" d="M299.724,950.286a119.6,119.6,0,0,0,12.66-.642c.676-.061,1.338-.17,1.486-1.017a1.847,1.847,0,0,1,1.263-.093c.309,1.2-.651,1.438-1.385,1.852a4.853,4.853,0,0,1-1.005.273c-.744.058-1.487-.474-2.234,0h-.669c-1.651.463-3.373-.148-5.023.335h-1c-1.763.478-3.6-.16-5.358.335l-1.785-.041A9.546,9.546,0,0,1,299.724,950.286Z" transform="translate(-27.421 -131.156)" fill="#a66b91"/>
    <path id="Path_54" data-name="Path 54" d="M404.273,800.931a2.037,2.037,0,0,0-2.184-.043,7.41,7.41,0,0,1-3.2.714,2.1,2.1,0,0,1,.685-1.321c1.314-2.053,3.552-1.956,5.563-2.352a.606.606,0,0,1,.79.613C405.043,799.107,405.282,800.451,404.273,800.931Z" transform="translate(-95.415 -31.012)" fill="#a7678a"/>
    <path id="Path_55" data-name="Path 55" d="M407.289,794.558c-2.391-.419-4.422.478-6.353,1.739a11.476,11.476,0,0,1,1.585-3.049,16.313,16.313,0,0,1,4.572-1.24c.514-.1,1.448-.327,1.223.851C407.953,793.414,407.94,794.179,407.289,794.558Z" transform="translate(-96.777 -27.028)" fill="#aa698c"/>
    <path id="Path_56" data-name="Path 56" d="M261.95,853.365c1.545-1.384,3.609-1.282,5.437-1.827.936-.279.447.744.624,1.167a.683.683,0,0,1,.08.917c-1.764-.407-4.533.552-5.144,1.782A4.853,4.853,0,0,1,261.95,853.365Z" transform="translate(-4.327 -66.649)" fill="#a06384"/>
    <path id="Path_57" data-name="Path 57" d="M390.075,814.612a9.02,9.02,0,0,0,3.006-.544c.639-.142,1.341-.3,1.494.682.026.2-.426.36-.042.584.11.07.146.14.11.211s-.073.1-.11.1c-1.045.295-2.078.653-3.139.868a5.977,5.977,0,0,0-3.639,1.789C388.217,816.88,389.285,815.833,390.075,814.612Z" transform="translate(-88.009 -41.687)" fill="#a06384"/>
    <path id="Path_58" data-name="Path 58" d="M266.989,862.658c2.031-1.383,4.419-1.5,6.911-2.2l-.554,1.86c-.514.968-1.542.721-2.351.968a12.53,12.53,0,0,1-3.043.778A2.6,2.6,0,0,1,266.989,862.658Z" transform="translate(-7.679 -72.617)" fill="#995f80"/>
    <path id="Path_59" data-name="Path 59" d="M425.707,798.156c1.8-.822,3.584-1.694,5.66-1.364-1.221.9-1.736,2.579-3.344,3.059-.578-.485-1.163-.032-1.745-.016s-1.185.4-1.763-.039Z" transform="translate(-112.461 -30.218)" fill="#a46788"/>
    <path id="Path_60" data-name="Path 60" d="M269.866,867.762c1.129-1.009,2.6-1.062,3.968-1.389a5.438,5.438,0,0,0,1.426-.356c.105.555-.263,1.222.39,1.646.083-.135.17-.145.263-.009l.034.046c-1.129.331-2.253.682-3.39.982a2.012,2.012,0,0,0-1.366.785C270.69,868.945,269.985,868.582,269.866,867.762Z" transform="translate(-9.593 -76.312)" fill="#965e7d"/>
    <path id="Path_61" data-name="Path 61" d="M287.071,828.312c.914-1.57,2.791-1.421,4.1-2.293l3.033,1.669c-2.168-.74-3.836,1.1-5.87,1.14a14.553,14.553,0,0,0-2.581.5C285.837,828.535,286.173,828.059,287.071,828.312Z" transform="translate(-20.157 -49.707)" fill="#a9698b"/>
    <path id="Path_62" data-name="Path 62" d="M299.477,836.073c1.479-1.771,3.635-1.692,5.626-2.061.589.51,1.51-.005,2.047.665-1.472.012-2.655.949-4.053,1.261-1.442.322-2.853.813-4.322,1.057C298.656,836.419,299.125,836.291,299.477,836.073Z" transform="translate(-28.81 -55.023)" fill="#a36587"/>
    <path id="Path_63" data-name="Path 63" d="M420.218,804.569c.906-.206,1.806-.45,2.72-.6.411-.068,1.138-.288.787.657-1.189.669-1.767,2.037-3.019,2.634-.893-.815-1.764.342-2.651.03Z" transform="translate(-108.164 -34.991)" fill="#a16586"/>
    <path id="Path_64" data-name="Path 64" d="M385.455,949.878c-1.666.618-3.4.294-5.107.375a21.765,21.765,0,0,1-5.434.117,17.842,17.842,0,0,0-4.76.283,1.614,1.614,0,0,1-1.165-.324c-.187-.586.3-.674.641-.867a8.285,8.285,0,0,1,4.9-.4c2.629.553,5.315-.244,7.969.169.874.136,1.766.147,2.64.307Z" transform="translate(-75.5 -131.422)" fill="#9a6888"/>
    <path id="Path_65" data-name="Path 65" d="M349.179,788.044c0-.7-.016-1.408,0-2.111.024-.849-.372-.905-1-.568-1.232,1.8-1.962,2.138-3.339,1.541-.35-.832.353-1.2.768-1.669.472-.538,1.148-.891,1.451-1.587a2.191,2.191,0,0,1,.328-.331c.572-.3.961-1.133,1.812-.633a52.7,52.7,0,0,1,.288,8.025c-.686-.039-.624-.6-.729-1.044A2.064,2.064,0,0,1,349.179,788.044Z" transform="translate(-59.4 -20.778)" fill="#c16a9e"/>
    <path id="Path_66" data-name="Path 66" d="M264.282,844.608c-.729,1.1-2.037.836-3.047,1.277-.746.325-1.6.451-1.682,1.5a3.58,3.58,0,0,1-.667-2.038c.966-1.245,3.986-1.9,5.086-1.1l.157.07A.494.494,0,0,1,264.282,844.608Z" transform="translate(-2.287 -61.596)" fill="#a56688"/>
    <path id="Path_67" data-name="Path 67" d="M411.466,790.25c-.223-.817-.779-.531-1.315-.423-1.487.3-2.9,1-4.48.812l.677-1.312c1.735-.431,3.468-.869,5.207-1.288a.846.846,0,0,1,.9.237C411.826,788.783,412.052,789.721,411.466,790.25Z" transform="translate(-99.926 -24.418)" fill="#ac6a8d"/>
    <path id="Path_68" data-name="Path 68" d="M335.674,792.339c.884.587,1.574.143,2.247-.418.367-.307.468-.933,1.1-.921a1.538,1.538,0,0,1-1.069,1.688c-1.425.553-2.707,1.647-4.471.888-.629-.271-1.306.446-1.917.813a1.539,1.539,0,0,1-.586-1.034,2.526,2.526,0,0,1,3.363-1.2C334.782,792.237,335.281,791.923,335.674,792.339Z" transform="translate(-50.243 -26.413)" fill="#c0679d"/>
    <path id="Path_69" data-name="Path 69" d="M255.965,822.3a20.088,20.088,0,0,0,4.152-1.095,2.3,2.3,0,0,1,2.208.044c-.782.822-1,2.2-2.378,2.436-.7-1.1-1.554-.4-2.355-.195a1.458,1.458,0,0,0-1.212,1.559,3.9,3.9,0,0,1-.279,1.789l-.161.17a7.247,7.247,0,0,1-.328-4.035A.684.684,0,0,0,255.965,822.3Z" transform="translate(0 -46.328)" fill="#b36e92"/>
    <path id="Path_70" data-name="Path 70" d="M351.041,951.953h1c.152.426-.653.54-.333,1.02l-4.284.01a20.209,20.209,0,0,1-5.428-.026v-.334c.267-.316.741-.007,1-.335l.67-.334a18.886,18.886,0,0,1,5.077-.495C349.541,951.5,350.378,951.328,351.041,951.953Z" transform="translate(-57.575 -133.125)" fill="#9b628a"/>
    <path id="Path_71" data-name="Path 71" d="M382.84,944.9c2.99.444,5.982.881,8.97,1.34a7.1,7.1,0,0,1,1.081.343,58.622,58.622,0,0,1-8.215.171,1.96,1.96,0,0,1-1.959-1.271A.629.629,0,0,1,382.84,944.9Z" transform="translate(-84.642 -128.784)" fill="#af7b99"/>
    <path id="Path_72" data-name="Path 72" d="M331.681,791.018c-1.353-.927-2.326.019-3.356.682l-1.01-1.319a1.634,1.634,0,0,1-.248-1.432c.617-.813,1.239-.3,1.862-.009,1.173.429,2.348-.231,3.521,0a1.573,1.573,0,0,1,.887.3C333.363,790.373,332.144,790.343,331.681,791.018Z" transform="translate(-47.59 -24.758)" fill="#c864a2"/>
    <path id="Path_73" data-name="Path 73" d="M375,945.981a3.572,3.572,0,0,0,3.154,1.373c2.3-.1,4.615-.044,6.924-.052a2.292,2.292,0,0,1,1.394.321c-4.1-.21-8.214.65-12.3-.278-1.134-.258-2.129.466-3.206.651-.139-.832.577-1.087,1.027-1.522.814-.392,1.726-.115,2.56-.371A2.049,2.049,0,0,1,375,945.981Z" transform="translate(-76.831 -129.502)" fill="#9c6f89"/>
    <path id="Path_74" data-name="Path 74" d="M316.3,773.768l-1.287-1.109.015-.023a3.023,3.023,0,0,0,.713-2.847,2.027,2.027,0,0,1,.894-2.285,1.379,1.379,0,0,1,1.151.259,1.293,1.293,0,0,1,.408.6,5.4,5.4,0,0,0-.039,2,1.8,1.8,0,0,1-.141,1.445,1.914,1.914,0,0,1-.273.365C317.082,772.545,317.052,773.486,316.3,773.768Z" transform="translate(-39.621 -10.755)" fill="#c96ca3"/>
    <path id="Path_75" data-name="Path 75" d="M327.363,944.995a8.957,8.957,0,0,1-4.661.974c-1.949-.162-3.843.574-5.795.325,3.055-1.026,6.27-1.144,9.418-1.641a2.608,2.608,0,0,0,1.619-.707c.115.4-.211.655-.321.98Q327.56,945.213,327.363,944.995Z" transform="translate(-40.883 -128.148)" fill="#ba869f"/>
    <path id="Path_76" data-name="Path 76" d="M338.048,805.79l.987.005a.553.553,0,0,1,.041.729,4.062,4.062,0,0,1-.321,2.416c-.17.335-.281.781-.744.785-.412,0-.444-.434-.573-.71-.277-.593-.508-1.207-.758-1.813C336.333,805.955,336.752,805.448,338.048,805.79Z" transform="translate(-53.958 -36.182)" fill="#b26d93"/>
    <path id="Path_77" data-name="Path 77" d="M353.32,803.818c.015.357-.062.743.3.992a3.769,3.769,0,0,0-.079.472c-.027.619.751,1.474-.061,1.793-.771.3-1.524-.383-2.055-1.037a5.118,5.118,0,0,1-.464-.853C351.112,803.853,351.643,803.544,353.32,803.818Z" transform="translate(-63.538 -34.878)" fill="#b16b91"/>
    <path id="Path_78" data-name="Path 78" d="M370.739,953.448c-.369-.5.114-.715.333-1.02a10.534,10.534,0,0,1,4.244-.144,59.75,59.75,0,0,0,6.133.145c-2.326.735-4.717.131-7.067.344-.429.039-1.283-.381-.988.713Z" transform="translate(-76.601 -133.599)" fill="#956287"/>
    <path id="Path_79" data-name="Path 79" d="M351.339,800.674c-.843.355-2.012.149-2.354,1.367a2.7,2.7,0,0,1-1-1.353c.574-1.638,2.041-1.506,3.349-1.688Q351.337,799.837,351.339,800.674Z" transform="translate(-61.557 -31.734)" fill="#b76a95"/>
    <path id="Path_80" data-name="Path 80" d="M421.143,773.165c-.019-2.173-.023-2.186-2.15-1.5-.782.251-1.538.584-2.306.88a5.693,5.693,0,0,1,2.713-2.308c1.641-.8,2.207-.419,2.123,1.408C421.5,772.161,421.674,772.76,421.143,773.165Z" transform="translate(-107.254 -12.334)" fill="#b67195"/>
    <path id="Path_81" data-name="Path 81" d="M318.853,782.774c.457-.6.222-1.733,1.389-1.774a2.51,2.51,0,0,0,1.846,1.38c.927.144,1.808.705,1.168,1.968-.309-.5-.883-.465-1.339-.669-.688.606-1.389.352-2.091.032A2.269,2.269,0,0,1,318.853,782.774Z" transform="translate(-42.177 -19.761)" fill="#cb67a4"/>
    <path id="Path_82" data-name="Path 82" d="M285.056,817.312a13.694,13.694,0,0,1-4.36.994q-.146-.108-.089-.2c.037-.06.073-.091.108-.091a3.1,3.1,0,0,1,3.783-1.387A.822.822,0,0,1,285.056,817.312Z" transform="translate(-16.726 -43.349)" fill="#b26d91"/>
    <path id="Path_83" data-name="Path 83" d="M353.265,767.37c-.373-1-.556-1.955-1.84-2.479-1.139-.466-.077-1.933-.506-2.874C352.535,763.436,353.605,765.094,353.265,767.37Z" transform="translate(-63.479 -7.134)" fill="#ca71a5"/>
    <path id="Path_84" data-name="Path 84" d="M344.421,826c0,.381.1.814-.444.941.125-.418-.08-.553-.463-.662-.862-.246-1.524-.789-1.379-1.75a1.7,1.7,0,0,1,1.947-1.558c.244.194.55.361.347.76C342.792,824.485,344.271,825.247,344.421,826Z" transform="translate(-57.651 -47.679)" fill="#ba7b9e"/>
    <path id="Path_85" data-name="Path 85" d="M352.647,780.231c-.787-.042-1.069.766-1.69,1-.321-.348-1.18-.157-1-1,.869-.493,1.4-1.655,2.676-1.341Q352.638,779.561,352.647,780.231Z" transform="translate(-62.849 -18.324)" fill="#c66aa1"/>
    <path id="Path_86" data-name="Path 86" d="M347.926,823.678l-.329-.694,2.015,0a3.345,3.345,0,0,1,.108,1.65c-.4.813-1.008,1.193-1.842.658C347.085,824.783,347.407,824.2,347.926,823.678Z" transform="translate(-61.167 -47.688)" fill="#be6e99"/>
    <path id="Path_87" data-name="Path 87" d="M355.518,823.958c1.392.728,1.409,1.448.063,2.725-.3.148-.582.191-.814-.117.095-.766.7-1.418.508-2.25A.737.737,0,0,1,355.518,823.958Z" transform="translate(-66.067 -48.336)" fill="#ba749b"/>
    <path id="Path_88" data-name="Path 88" d="M336.183,804.628c-.839.1-1.425.445-1.367,1.413a6.267,6.267,0,0,1-1.056-2.053C334.6,804.071,335.6,803.565,336.183,804.628Z" transform="translate(-52.093 -35.019)" fill="#b96d97"/>
    <path id="Path_89" data-name="Path 89" d="M440.974,835.248c2.106-.8,4.289-.163,6.429-.34C445.284,835.465,443.114,835.08,440.974,835.248Z" transform="translate(-123.409 -55.569)" fill="#925d7c"/>
    <path id="Path_90" data-name="Path 90" d="M321.756,789.032l2.091-.032q-.007.853-.013,1.706A8.865,8.865,0,0,1,321.756,789.032Z" transform="translate(-44.109 -25.083)" fill="#c76ea3"/>
    <path id="Path_91" data-name="Path 91" d="M340.673,956l5.428.026c-2.011.515-4.062.249-6.1.3A.694.694,0,0,1,340.673,956Z" transform="translate(-56.247 -136.166)" fill="#a0668f"/>
    <path id="Path_92" data-name="Path 92" d="M378.894,955.935c1.683.11,3.4-.391,5.05.281C382.259,956.153,380.554,956.446,378.894,955.935Z" transform="translate(-82.115 -136.072)" fill="#956287"/>
    <path id="Path_93" data-name="Path 93" d="M408,815.716q0-.158,0-.315c1.5.5,2.41-.463,3.359-1.338C410.891,815.941,409.408,815.754,408,815.716Z" transform="translate(-101.474 -41.754)" fill="#a16586"/>
    <path id="Path_94" data-name="Path 94" d="M352.81,838.611c.182-.323.393-.511.718-.149-.706.565.408,1.171-.04,1.741-.276.4.066.925-.276,1.308C352.592,840.612,352.982,839.573,352.81,838.611Z" transform="translate(-64.765 -57.852)" fill="#885d78"/>
    <path id="Path_95" data-name="Path 95" d="M439.83,788.214c-.8-1.45-1.991-1.054-3.18-.687.725-1.05,1.813-.617,2.734-.562C440.033,787,439.791,787.745,439.83,788.214Z" transform="translate(-120.533 -23.639)" fill="#ac6c8e"/>
    <path id="Path_96" data-name="Path 96" d="M453,828.7q0-.158,0-.315a3.594,3.594,0,0,1,2.988-.021Z" transform="translate(-131.408 -51.057)" fill="#925d7c"/>
    <path id="Path_97" data-name="Path 97" d="M348.811,841.171a5.938,5.938,0,0,1,.112-1.889c.184-.469.215.112.322.214,0,.882,0,1.764,0,2.75C348.629,841.919,348.837,841.511,348.811,841.171Z" transform="translate(-62.092 -58.409)" fill="#855f77"/>
    <path id="Path_98" data-name="Path 98" d="M353.664,830.8l.725.318c-.552.465-.552.465.643.939-.935.2-1.7.037-2.057-.978C353.011,830.5,353.295,830.545,353.664,830.8Z" transform="translate(-64.874 -52.768)" fill="#bb88a5"/>
    <path id="Path_99" data-name="Path 99" d="M328.018,957.234c1.194-.674,2.484-.164,3.722-.3A10.865,10.865,0,0,1,328.018,957.234Z" transform="translate(-48.274 -136.749)" fill="#a0668f"/>
    <path id="Path_100" data-name="Path 100" d="M354.384,823.276l-.04.428a2.482,2.482,0,0,1-.983.593c-.59-.456-.153-.9.018-1.345C353.757,822.925,354.146,822.868,354.384,823.276Z" transform="translate(-64.932 -47.654)" fill="#bb789d"/>
    <path id="Path_101" data-name="Path 101" d="M409.8,886.144c1.128.142,1.533-.423,1.44-1.475.151.546.655,1.154.165,1.643C410.936,886.783,410.31,886.518,409.8,886.144Z" transform="translate(-102.675 -88.719)" fill="#7d546e"/>
    <path id="Path_102" data-name="Path 102" d="M357.885,843.841l.067-1.057c.1-.155.209-.166.321-.01-.016.617.464,1.283-.254,1.947C357.964,844.364,357.924,844.1,357.885,843.841Z" transform="translate(-68.141 -60.777)" fill="#7b526d"/>
    <path id="Path_103" data-name="Path 103" d="M362.808,839.687l.121-.78.537.69a1.885,1.885,0,0,1-.226,1.453c-.487-.243-.062-.82-.408-1.114A.211.211,0,0,1,362.808,839.687Z" transform="translate(-71.395 -58.279)" fill="#8a5675"/>
    <path id="Path_104" data-name="Path 104" d="M400.841,901.817c.67-.65.262-1.507.431-2.254.5.623.276,1.37.3,2.054C401.585,902.224,401.208,902.188,400.841,901.817Z" transform="translate(-96.714 -98.626)" fill="#744b65"/>
    <path id="Path_105" data-name="Path 105" d="M389.987,903.219a1.811,1.811,0,0,1,2.341.021Z" transform="translate(-89.494 -100.78)" fill="#744b65"/>
    <path id="Path_106" data-name="Path 106" d="M381.484,942q-.027.164-.047.33a.327.327,0,0,1-.491-.12,1.963,1.963,0,0,1,.188-2.216l.278.005q.049.82.1,1.639Z" transform="translate(-83.313 -125.516)" fill="#64445b"/>
    <path id="Path_107" data-name="Path 107" d="M351.724,931.018a1.6,1.6,0,0,1-.1,2.306A7.456,7.456,0,0,0,351.724,931.018Z" transform="translate(-63.974 -119.549)" fill="#705167"/>
    <path id="Path_108" data-name="Path 108" d="M345.013,843.983c.111-.646-.236-1.361.295-1.943a3.8,3.8,0,0,1-.056,2,.125.125,0,0,1-.115.035A.483.483,0,0,1,345.013,843.983Z" transform="translate(-59.572 -60.363)" fill="#7b526d"/>
    <path id="Path_109" data-name="Path 109" d="M340.142,844.084c.417-.4.2-.937.317-1.4a3.111,3.111,0,0,1,.3,1.586c.018.24-.073.442-.366.343A.41.41,0,0,1,340.142,844.084Z" transform="translate(-56.329 -60.79)" fill="#917387"/>
    <path id="Path_110" data-name="Path 110" d="M424.992,851.753c.018-.3.075-.565.432-.629-.183.632.369.88.662,1.264A.98.98,0,0,1,424.992,851.753Z" transform="translate(-112.778 -66.406)" fill="#8c5876"/>
    <path id="Path_111" data-name="Path 111" d="M343.989,804.132q-.02-.365-.041-.729c.07-.443-.125-.942.279-1.314C344.206,802.777,344.427,803.493,343.989,804.132Z" transform="translate(-58.87 -33.789)" fill="#b96d97"/>
    <path id="Path_112" data-name="Path 112" d="M431.01,847.3c.6-.631,1.36-.263,2.053-.309C432.44,847.5,431.7,847.218,431.01,847.3Z" transform="translate(-116.781 -63.614)" fill="#8f5978"/>
    <path id="Path_113" data-name="Path 113" d="M362.751,844.521h-.313c-.518-.562-.321-1.153-.069-1.746.445.389-.03,1.026.384,1.423Z" transform="translate(-70.953 -60.852)" fill="#935b7b"/>
    <path id="Path_114" data-name="Path 114" d="M337.592,753.639a1.862,1.862,0,0,1-1.609-.687A1.924,1.924,0,0,1,337.592,753.639Z" transform="translate(-53.572 -1.105)" fill="#c971a4"/>
    <path id="Path_115" data-name="Path 115" d="M358.375,840.359q-.161,0-.321.01c0-.386-.027-.773-.007-1.158.011-.225.156-.228.275-.065a1.045,1.045,0,0,1,.1.314Q358.4,839.91,358.375,840.359Z" transform="translate(-68.242 -58.362)" fill="#875473"/>
    <path id="Path_116" data-name="Path 116" d="M396.9,904.046c.605-.048,1.164-.013,1.33.735Z" transform="translate(-94.09 -101.599)" fill="#744b65"/>
    <path id="Path_117" data-name="Path 117" d="M397.364,808.9c-.046.575-.16,1.109-.789,1.341A2.041,2.041,0,0,1,397.364,808.9Z" transform="translate(-93.876 -38.32)" fill="#a7678a"/>
    <path id="Path_118" data-name="Path 118" d="M354.006,845.363c.058-.443-.15-.943.276-1.308a2.329,2.329,0,0,1-.052,1.359.12.12,0,0,1-.106.048C354.079,845.446,354.045,845.4,354.006,845.363Z" transform="translate(-65.56 -61.704)" fill="#7d566f"/>
    <path id="Path_119" data-name="Path 119" d="M257.239,838.756q-.015.876-.03,1.752a2.4,2.4,0,0,1-.329-1.732l.058-.048Q257.108,838.525,257.239,838.756Z" transform="translate(-0.939 -58.097)" fill="#af6e90"/>
    <path id="Path_120" data-name="Path 120" d="M445.989,792.594q.017-.849.034-1.7A1.339,1.339,0,0,1,445.989,792.594Z" transform="translate(-126.745 -26.343)" fill="#ac6c8e"/>
    <path id="Path_121" data-name="Path 121" d="M363.2,843.671c-.506-.372-.26-.948-.384-1.423a.236.236,0,0,1,.02-.266c.435.262.327.722.408,1.114Q363.221,843.383,363.2,843.671Z" transform="translate(-71.399 -60.325)" fill="#805771"/>
    <path id="Path_122" data-name="Path 122" d="M319.046,958.248c.531-.479,1.164-.215,1.758-.244A2.852,2.852,0,0,1,319.046,958.248Z" transform="translate(-42.306 -137.468)" fill="#a0668f"/>
    <path id="Path_123" data-name="Path 123" d="M375.509,934.069q0,1.172,0,2.344a6.543,6.543,0,0,1-3.012.039.952.952,0,0,1-.248-.466,3.337,3.337,0,0,1,.573-1.918,3.732,3.732,0,0,0,.686-1.688,2.606,2.606,0,0,1,.15-.46,1.452,1.452,0,0,1,.648-.743,1.1,1.1,0,0,1,1.2.217Q375.507,932.731,375.509,934.069Z" transform="translate(-77.688 -119.596)" fill="#604158"/>
    <path id="Path_124" data-name="Path 124" d="M374.706,919.743q0,1,0,2.009a5.424,5.424,0,0,1-2.553.881,1.2,1.2,0,0,1-.978-.782,1.729,1.729,0,0,1-.138-.522C371.478,919.955,372.956,919.317,374.706,919.743Z" transform="translate(-76.89 -111.962)" fill="#68455d"/>
    <path id="Path_125" data-name="Path 125" d="M373.275,916.989c-1.017-.1-1.782.706-2.8.735-.761.021-.463.836-.6,1.313-.818-.149-.872-.816-.986-1.446a1.537,1.537,0,0,1,.3-1.038c1.275-.688,2.541-1.428,4.086-.9Q373.274,916.319,373.275,916.989Z" transform="translate(-75.458 -109.209)" fill="#6b475f"/>
    <path id="Path_126" data-name="Path 126" d="M372.688,914.006l-4.017,1c-.373.179-.541-.042-.668-.343,1.259-1.408,3.03-1.375,4.685-1.666Q372.688,913.5,372.688,914.006Z" transform="translate(-74.871 -107.565)" fill="#6d4760"/>
    <path id="Path_127" data-name="Path 127" d="M373.608,926.65a5.663,5.663,0,0,1,2.677-.669q0,1,0,2.009l-1.332,0a1.622,1.622,0,0,1-1.264-.358,1.116,1.116,0,0,1-.256-.371A.568.568,0,0,1,373.608,926.65Z" transform="translate(-78.468 -116.192)" fill="#64445b"/>
    <path id="Path_128" data-name="Path 128" d="M313.577,757.349c-.476.97-.926,1.814-.3,3.036.439.851-.5,1.571-1.36,1.958-.014-1.626-1.081-3.142-.17-4.914.455-.885-.61-1.795-1.114-2.641-.162-.273-.434-.605-.206-.917a.76.76,0,0,1,.93-.114c1.905.767,3.439.586,4.287-1.563.051-.129.4-.141.606-.207.348.447-.159.9,0,1.343a18.126,18.126,0,0,1-2.009,2.009c-.9.026-2.09-.172-1,1.34C313.425,756.867,313.793,756.962,313.577,757.349Z" transform="translate(-36.517 -0.463)" fill="#c66fa0"/>
    <path id="Path_129" data-name="Path 129" d="M299.926,856.91a2.256,2.256,0,0,1,1.347-1.038A1.448,1.448,0,0,1,299.926,856.91Z" transform="translate(-29.588 -69.564)" fill="#9b6181"/>
    <path id="Path_130" data-name="Path 130" d="M361.346,917.268l.668.343q-.005.515-.011,1.031a3.921,3.921,0,0,0-3.6.178.645.645,0,0,1-.4-.206q0-.167,0-.333C358.994,917.55,359.833,916.292,361.346,917.268Z" transform="translate(-68.214 -110.166)" fill="#724d65"/>
    <path id="Path_131" data-name="Path 131" d="M286.6,849.767a3.511,3.511,0,0,1,1.41-1.325c1.354-.023,2.7-.537,4.063-.032l-2.336,1.365C288.692,849.152,287.646,849.49,286.6,849.767Z" transform="translate(-20.724 -64.453)" fill="#a06485"/>
    <path id="Path_132" data-name="Path 132" d="M360.242,943.914l.011.339c-.269.41.212.464.328.691.022.708-.86.73-1,1.316a.694.694,0,0,0-.67.335h-2.344c-.664-.373-1.458-.33-2.133-.662-.463-.228-.973-.473-.213-.98l1.006-.365c.248-.29.147-.805.615-.955C357.33,943.41,358.824,943.066,360.242,943.914Z" transform="translate(-65.446 -127.766)" fill="#a57090"/>
    <path id="Path_133" data-name="Path 133" d="M349.677,948.066c-.274.55.044.587.492.674a3.36,3.36,0,0,1,1.854.968H347a2.266,2.266,0,0,0,1.666-1.363c-.111-.082-.143-.152-.094-.213a.18.18,0,0,1,.134-.082Z" transform="translate(-60.9 -130.879)" fill="#9a698c"/>
    <path id="Path_134" data-name="Path 134" d="M358.3,934.376c-.042.26-.053.535-.34.672q-.01-3.009-.02-6.017l.311,0A6.235,6.235,0,0,1,358.3,934.376Z" transform="translate(-68.176 -118.225)" fill="#705167"/>
    <path id="Path_135" data-name="Path 135" d="M357.265,922l.36.008a1.739,1.739,0,0,1-.292,2.29l-.087.058A2.155,2.155,0,0,1,357.265,922Z" transform="translate(-67.483 -113.549)" fill="#705167"/>
    <path id="Path_136" data-name="Path 136" d="M349.4,947.267a1.569,1.569,0,0,0-.039.3l-1.319,0q.016-.312.032-.625a1.538,1.538,0,0,0,.26-.069C348.574,947.3,349,947.236,349.4,947.267Z" transform="translate(-61.591 -130.095)" fill="#724e66"/>
    <path id="Path_137" data-name="Path 137" d="M277.217,840.906l.3-.312a9.348,9.348,0,0,0,2.867-.531c.631-.135,1.283-.326,1.86.178l-1.7,1.041c-.306.157-.526.561-.965.334l-2.679.335C276.707,841.512,277.088,841.247,277.217,840.906Z" transform="translate(-14.235 -58.948)" fill="#a56688"/>
    <path id="Path_138" data-name="Path 138" d="M292.953,854a1.552,1.552,0,0,1-.955.953A.927.927,0,0,1,292.953,854Z" transform="translate(-24.314 -68.318)" fill="#a06485"/>
    <path id="Path_139" data-name="Path 139" d="M329.885,762.626l.338.975a.478.478,0,0,1-.383.15,2.311,2.311,0,0,1-.8-.342c-.63-.6-.969-.156-1.286.358a4.8,4.8,0,0,0-.9,1.445,3.834,3.834,0,0,0-.265,1.465,1.271,1.271,0,0,0,.657,1.614.527.527,0,0,1-.09.445,1.749,1.749,0,0,1-2.02.15c-.789-.535.019-1.2-.025-1.81a5.569,5.569,0,0,0,.121-2.63,1,1,0,0,1-.073-.882,1.507,1.507,0,0,1,.605-.319c.909-.214,1.28-.93,1.581-1.708.3-.542.642-.864,1.259-.345A5.068,5.068,0,0,1,329.885,762.626Z" transform="translate(-46.129 -6.409)" fill="#d569b0"/>
    <path id="Path_140" data-name="Path 140" d="M336.917,773.04c1.394.442,1.684,1.219.771,2.414a12.081,12.081,0,0,0-.747,1.255c-.305.523-.817.869-1.159,1.363a1.425,1.425,0,0,1-.393.261,8.528,8.528,0,0,1-1.62.259c-1.039.038-1.586-.339-1.321-1.464.9-.342,2.1.581,2.791-.658.083-.129.176-.249.271-.368C336.52,775.33,336.343,774.012,336.917,773.04Z" transform="translate(-51.176 -14.466)" fill="#d667b1"/>
    <path id="Path_141" data-name="Path 141" d="M336.873,773.817q0,.157-.007.315c-.776.539-1.568.923-2.467.252a.916.916,0,0,1-.068-.728c.214-.439.631-.325.985-.334.583-.015.753-.3.616-.83a1.739,1.739,0,0,0-1.1-1.386c-.343-.733.27-.859.7-1.107.13-.072.263-.136.394-.2a4.507,4.507,0,0,0,.934-.618.822.822,0,0,1,.652.64,1.3,1.3,0,0,0,.286,1.327C338.185,772.277,337.106,772.9,336.873,773.817Z" transform="translate(-52.443 -11.898)" fill="#f980dd"/>
    <path id="Path_142" data-name="Path 142" d="M341,788.556c.155-.961,1.224-1.008,1.673-1.676-.168-.824.564-.972,1.005-1.338v-.669c.432-.178.729.046,1,.337.283.5.091.762-.373,1.046a6.305,6.305,0,0,0-1.97,1.966Z" transform="translate(-56.91 -22.295)" fill="#c5679f"/>
    <path id="Path_143" data-name="Path 143" d="M333.349,761c-.543-.416-1.107-.808-1.623-1.256-.441-.384-.456.25-.722.252a.71.71,0,0,1-1,0l.335-.336c.336-.346-.043-1.151.837-1.175a2.285,2.285,0,0,1,2.176,1.175h0Z" transform="translate(-49.593 -4.786)" fill="#cf67a7"/>
    <path id="Path_144" data-name="Path 144" d="M344.164,786.225c.031.721-.857.751-1.005,1.338h-1c-.265-.283-.586-.547-.335-1v0c.5-.366.937-.894,1.674-.67Z" transform="translate(-57.395 -22.979)" fill="#cb63b1"/>
    <path id="Path_145" data-name="Path 145" d="M341.815,776.333c-.511-1.074,1.117-1.622.661-2.682a.709.709,0,0,1,.347-.691l.3.027C343.234,774.316,343.174,775.579,341.815,776.333Z" transform="translate(-57.384 -14.413)" fill="#f391dc"/>
    <path id="Path_146" data-name="Path 146" d="M343.677,784.669c-.526.3-.97.811-1.674.67A1.393,1.393,0,0,1,343.341,784,.692.692,0,0,1,343.677,784.669Z" transform="translate(-57.576 -21.757)" fill="#cf6cb1"/>
    <path id="Path_147" data-name="Path 147" d="M343.181,771.715a.736.736,0,0,1-.346.69c-1.164-.416-.257-.874-.026-1.317Z" transform="translate(-57.743 -13.169)" fill="#f4a0e1"/>
    <path id="Path_148" data-name="Path 148" d="M339.184,768.77a.887.887,0,0,1-.981.934.729.729,0,0,1-.349-.936c.127-.263.425-.25.676-.08l.335-.007Q339.027,768.717,339.184,768.77Z" transform="translate(-54.771 -11.489)" fill="#f3a7e1"/>
    <path id="Path_149" data-name="Path 149" d="M350.005,784.007l-1-.337a.687.687,0,0,1,.334-.669l1,1Z" transform="translate(-62.232 -21.093)" fill="#c670a4"/>
    <path id="Path_150" data-name="Path 150" d="M348,825.679c.025-.7.461-.719.984-.593a1.3,1.3,0,0,1-.622,1.979.678.678,0,0,0-.689.279l-1.33.017c-.487-.5-1.569-.526-1.295-1.62.17-.68.69-.776,1.284-.715.074.469-.689,1,.158,1.423C347.382,826.888,347.653,826.237,348,825.679Z" transform="translate(-59.573 -49.036)" fill="#e2d5dc"/>
    <g id="Group_1" data-name="Group 1" transform="translate(259.248 774.621)">
      <path id="Path_151" data-name="Path 151" d="M287.24,854.869l-.132-.007-.131.017a5.474,5.474,0,0,1,1.629-4.725,4.839,4.839,0,0,1,.956-.955l.375-.359a2.517,2.517,0,0,1,2.34-1.368c.734-.2,1.458-.451,2.2-.586.484-.087,1.175-.321,1.144.629a16.426,16.426,0,0,0-3.034,2.308l.022,0a11.367,11.367,0,0,1-1.348,1.04,5.667,5.667,0,0,0-1.714,1.665Z" transform="translate(-280.18 -838.148)" fill="#e8dae2"/>
      <path id="Path_152" data-name="Path 152" d="M286.994,839.915l-.7.924a8.073,8.073,0,0,0-2.685,2.02c-.1.84-1.011.81-1.411,1.327-.8.434-1.087,1.519-2.116,1.661l-.08-.918,1-2.029c.474-.671,1.01-1.3,1.465-1.982a2.243,2.243,0,0,1,1.865-.759C285.218,840.1,286.069,839.6,286.994,839.915Z" transform="translate(-275.581 -833.502)" fill="#e7d8e0"/>
      <path id="Path_153" data-name="Path 153" d="M279.276,831.642a2.744,2.744,0,0,0-1.322,1.02c-.759.688-1.793,1.061-2.314,2.021a.887.887,0,0,1-.243.62c-.4.318-.762.8-1.367.374l.018.005a7.778,7.778,0,0,1,.978-2.65,12.405,12.405,0,0,1,3.258-1.843C278.73,831.083,279.3,830.709,279.276,831.642Z" transform="translate(-271.61 -827.658)" fill="#e5d3dd"/>
      <path id="Path_154" data-name="Path 154" d="M271.545,821.01a1.038,1.038,0,0,1-.02.293,7.448,7.448,0,0,0-2.038,2.333,5.589,5.589,0,0,0-1.6,2.369h-.006c-.478.641-.777.367-.98-.209a2.145,2.145,0,0,1,.007-1.265,1.269,1.269,0,0,1,.656-.824c.91-.684,1.088-2.065,2.322-2.44A2.523,2.523,0,0,1,271.545,821.01Z" transform="translate(-266.804 -820.967)" fill="#e9d6e0"/>
    </g>
    <path id="Path_155" data-name="Path 155" d="M261.037,826.846l-.29.63c-.58.578.063,1.4-.408,2a2.275,2.275,0,0,0-3.005.664,2.1,2.1,0,0,1-.3-.028c-.01-.22-.026-.44-.029-.66-.04-2.992.12-3.086,3.092-3.7C261.389,825.483,261.177,826.095,261.037,826.846Z" transform="translate(-1.034 -49.486)" fill="#b06b8f"/>
    <path id="Path_156" data-name="Path 156" d="M266.943,833.035c.145-.667-.322-1.457.408-2-.038.436-.091.871-.113,1.307-.032.641.314.571.72.361C267.822,833.42,267.5,833.569,266.943,833.035Z" transform="translate(-7.638 -53.04)" fill="#af6e90"/>
    <path id="Path_157" data-name="Path 157" d="M322,758.009A2.653,2.653,0,0,1,324.009,756c.67.769.918,1.5-.066,2.247C323.186,758.822,322.547,758.912,322,758.009Z" transform="translate(-44.271 -3.132)" fill="#c76fa3"/>
    <path id="Path_158" data-name="Path 158" d="M333.723,757.748c-1-.393-2.009-1.656-3.013,0,0-.055-.021-.122,0-.162.387-.643-.806-1.944.423-1.977A2.269,2.269,0,0,1,333.723,757.748Z" transform="translate(-49.967 -2.871)" fill="#cc69a6"/>
    <path id="Path_159" data-name="Path 159" d="M328.166,763h1a1.916,1.916,0,0,1-1.673,2.008,1.012,1.012,0,0,1,0-1.34Z" transform="translate(-47.758 -7.79)" fill="#cd68af"/>
    <path id="Path_160" data-name="Path 160" d="M324.01,765q0,.67,0,1.34h-.67c-.386.273-.649-.066-.956-.191a.9.9,0,0,1-.384-.479C322.406,764.654,323.514,765.745,324.01,765Z" transform="translate(-44.271 -9.118)" fill="#cd68a7"/>
    <path id="Path_161" data-name="Path 161" d="M320.005,766.335l.336.336q.127.112.084.223c-.029.074-.057.112-.086.112l-1-.336L319,766Z" transform="translate(-42.276 -9.784)" fill="#c971a8"/>
    <path id="Path_162" data-name="Path 162" d="M302,956.26c1.749-.707,3.576-.155,5.358-.334C305.608,956.633,303.781,956.08,302,956.26Z" transform="translate(-30.967 -136.092)" fill="#a0668f"/>
    <path id="Path_163" data-name="Path 163" d="M321,955.243c1.633-.736,3.354-.144,5.023-.334C324.389,955.645,322.668,955.052,321,955.243Z" transform="translate(-43.605 -135.41)" fill="#a0668f"/>
    <path id="Path_164" data-name="Path 164" d="M340.343,953.948c-.241.393-.636.323-1,.335H338C338.7,953.64,339.564,954.077,340.343,953.948Z" transform="translate(-54.913 -134.783)" fill="#a0668f"/>
    <path id="Path_165" data-name="Path 165" d="M283.673,844.336l.965-.334a6.824,6.824,0,0,1-1.627,1.7C282.941,845.1,283.482,844.8,283.673,844.336Z" transform="translate(-18.332 -61.669)" fill="#a76789"/>
    <path id="Path_166" data-name="Path 166" d="M275.344,842.88l-.32,1.045-.667.009-.328-.371C274.654,843.7,274.909,843.114,275.344,842.88Z" transform="translate(-12.362 -60.922)" fill="#a76789"/>
    <path id="Path_167" data-name="Path 167" d="M329.3,781.7l.335,1c-1.228-.335-2.456.565-3.684,0,.019-1.071-.5-1.743-1.574-1.647-1.4.125-1.552-.635-1.439-1.7h0c.376-.364.53-1.171,1.339-.67a1.63,1.63,0,0,1-.052.642c-.687,1.223-.155,1.385.932,1.121a6.484,6.484,0,0,1,.8-.1l.161.056a.486.486,0,0,1,.165.287c.021.8.09,1.465,1.23,1.121A7.676,7.676,0,0,1,329.3,781.7Z" transform="translate(-44.876 -18.114)" fill="#ce65a7"/>
    <path id="Path_168" data-name="Path 168" d="M372.877,946.7c-.395-.095-.84-.166-.328-.691.942.669,2.01.19,3.01.33q.154,0,.307-.007C374.943,947.055,373.861,946.478,372.877,946.7Z" transform="translate(-77.741 -129.517)" fill="#705167"/>
    <path id="Path_169" data-name="Path 169" d="M323.912,772.9c-.582-.049-.875.481-1.339.67.012-.525.444-1.019.071-1.576a1.608,1.608,0,0,1,.264-2.106c.438-.2.684.176,1,.336C324.637,771.117,323.831,772.01,323.912,772.9Z" transform="translate(-44.509 -12.333)" fill="#cc69a6"/>
    <path id="Path_170" data-name="Path 170" d="M324.338,769.007l-1-.336-.335-.334q0-.168,0-.335l1,.334Z" transform="translate(-44.936 -11.115)" fill="#cb65af"/>
    <path id="Path_171" data-name="Path 171" d="M358.2,922.528l.292-2.29c1.221-.9,2.44-1.465,3.648.02a2.828,2.828,0,0,0,.626,1.352l0-.017c.311.416.408.939.685,1.372l-.017-.028c.111.633,1.57.178,1.061,1.313a.118.118,0,0,0-.04.193,12.012,12.012,0,0,1-.614,1.813l-.688,1.673-4.674,0Q358.333,925.23,358.2,922.528Z" transform="translate(-68.348 -111.781)" fill="#fcfafb"/>
    <path id="Path_172" data-name="Path 172" d="M374.876,931.393c.02-.74-1.04-.606-1.061-1.313.456.243,1.047.195,1.408.647A.693.693,0,0,1,374.876,931.393Z" transform="translate(-78.737 -118.925)" fill="#68455d"/>
    <path id="Path_173" data-name="Path 173" d="M375.028,936.393a3.348,3.348,0,0,1,.614-1.813A1.883,1.883,0,0,1,375.028,936.393Z" transform="translate(-79.544 -121.919)" fill="#64445b"/>
    <path id="Path_174" data-name="Path 174" d="M372.506,927.438a1.6,1.6,0,0,1-.684-1.372l.729.648Z" transform="translate(-77.411 -116.255)" fill="#6b475f"/>
    <path id="Path_175" data-name="Path 175" d="M329.032,774.523a2.733,2.733,0,0,1,.344-1.644.812.812,0,0,1,.833.109c.629.535.191,1.04-.042,1.551a4.211,4.211,0,0,1-.275.564.511.511,0,0,1-.337.209C329.093,775.241,329.278,774.739,329.032,774.523Z" transform="translate(-48.948 -14.31)" fill="#f6a7e4"/>
    <path id="Path_176" data-name="Path 176" d="M330.711,770.332l-.652-.324c.246-.516.391-1.105.988-1.368a.589.589,0,0,1,.633-.1.7.7,0,0,1,.251.611,1.434,1.434,0,0,1-.137.439C331.6,770.078,331.13,770.168,330.711,770.332Z" transform="translate(-49.631 -11.439)" fill="#f4a3db"/>
    <path id="Path_177" data-name="Path 177" d="M328.719,777.938l.652.688c.355.257.552.564.322,1.008C327.95,779.883,328.748,778.673,328.719,777.938Z" transform="translate(-48.635 -17.725)" fill="#db67b7"/>
    <path id="Path_178" data-name="Path 178" d="M333.67,766.636l-.66-.025c.372-1.053.8-1.849,1.675-.331A.982.982,0,0,1,333.67,766.636Z" transform="translate(-51.594 -9.409)" fill="#db6cbb"/>
    <path id="Path_179" data-name="Path 179" d="M334.98,768.311c.239-.4.648-.319,1.015-.356a.749.749,0,0,1,.669.328c-.862.1-.234.672-.327,1.016l-.016.013c-.561.341-.7-.962-1.336-.339Z" transform="translate(-52.905 -11.084)" fill="#f980dd"/>
    <path id="Path_180" data-name="Path 180" d="M331.3,780.834l-.322-1.008,0-.006c.638-.15,1.207-.163,1.351.675l-.006.682a.78.78,0,0,1-.994-.022v0A2.711,2.711,0,0,0,331.3,780.834Z" transform="translate(-50.239 -18.924)" fill="#f58bdc"/>
    <path id="Path_181" data-name="Path 181" d="M332.022,783.965l.994.021c.788.743,1.563.056,2.344-.018a1.846,1.846,0,0,1-3.011.344Z" transform="translate(-50.937 -21.734)" fill="#db67b7"/>
    <path id="Path_182" data-name="Path 182" d="M332.324,774.009l-1.351-.675q.009-.328.018-.657c.989-.475.865-1.578,1.327-2.351h0c.7-.906.872.3,1.336.339-.229.438-1.064.267-1,1,.006.069.012.138.019.206.027.313-.106.662.217.9.345.156.743.03,1.074.22a.624.624,0,0,1,.041,1.1C333.444,774.573,332.873,774.285,332.324,774.009Z" transform="translate(-50.239 -12.438)" fill="#fa71db"/>
    <path id="Path_183" data-name="Path 183" d="M336.942,776.07c-.444.239-.887.554-1.343.02a1.465,1.465,0,0,1,.031-1.345v0C336.964,774.3,337.036,775.1,336.942,776.07Z" transform="translate(-53.218 -15.516)" fill="#fdd0d9"/>
    <path id="Path_184" data-name="Path 184" d="M332.354,770.994c-.219.909.014,2.074-1.327,2.35.009-.473,1.019-.7.328-1.346Z" transform="translate(-50.275 -13.106)" fill="#f981e0"/>
    <path id="Path_185" data-name="Path 185" d="M335.01,775q-.015.673-.031,1.345C334.046,775.873,334.78,775.441,335.01,775Z" transform="translate(-52.597 -15.769)" fill="#f981e0"/>
  </g>
</svg>
