<svg xmlns="http://www.w3.org/2000/svg" width="57.435" height="40.499" viewBox="0 0 57.435 40.499">
  <path id="messages" d="M346.472,125.882a4.085,4.085,0,0,0-1.789-.412h-49.2a4.114,4.114,0,0,0-4.124,4.124v32.244a4.037,4.037,0,0,0,1.031,2.717,4.085,4.085,0,0,0,3.093,1.414h49.188a4.157,4.157,0,0,0,4.124-4.124V129.586A4.143,4.143,0,0,0,346.472,125.882Zm-50.683,2.533c4.043,3.387,7.938,6.922,11.781,10.515,2.172,1.988,4.271,4.05,6.406,6.075l3.144,3.093a6.356,6.356,0,0,0,.685.611,3.465,3.465,0,0,0,.7.4,3.913,3.913,0,0,0,3.152,0,3.15,3.15,0,0,0,.7-.4,5.643,5.643,0,0,0,.685-.611c1.053-1.023,2.084-2.069,3.152-3.085,2.128-2.032,4.227-4.087,6.4-6.082,3.844-3.586,7.739-7.12,11.781-10.515.479-.4.965-.81,1.451-1.208-.339.4-.67.81-1.009,1.215h-.007c-3.446,4.124-7.054,8.1-10.714,12.017-1.458,1.59-2.96,3.144-4.448,4.705l10.463,12.429-12.032-10.139-2.636,2.636-.449.449c-.147.147-.28.287-.5.486a6.269,6.269,0,0,1-1.325.943,6.636,6.636,0,0,1-6.259.007,6.983,6.983,0,0,1-1.325-.943c-.221-.2-.353-.339-.5-.486l-3.093-3.093-12.032,10.139,10.508-12.488c-1.48-1.539-2.96-3.071-4.4-4.646-3.652-3.917-7.253-7.886-10.706-12.01-.339-.4-.677-.81-1.016-1.222C294.825,127.605,295.311,128.01,295.789,128.415Z" transform="translate(-291.364 -125.47)" fill="#934477"/>
</svg>
