<svg xmlns="http://www.w3.org/2000/svg" viewBox="0 0 110.96 91.83">
    <path fill="#b97095"
          d="M53.74,60.34a38.53,38.53,0,0,1-1.93,12.38,30.68,30.68,0,0,1-5.54,10,26.22,26.22,0,0,1-8.55,6.67A24.62,24.62,0,0,1,26.9,91.83a22.74,22.74,0,0,1-11.57-3,25,25,0,0,1-8.64-8.66,42.45,42.45,0,0,1-5-13A76.13,76.13,0,0,1,0,50.69a87.44,87.44,0,0,1,2.15-20,53.17,53.17,0,0,1,6.41-16A32.78,32.78,0,0,1,19.21,3.9,27.06,27.06,0,0,1,33.54,0,31.39,31.39,0,0,1,46.63,2.49l1.83.85a1.72,1.72,0,0,1,1,1.58V19.44A1.59,1.59,0,0,1,47.14,21l-4.37-2.4a18.59,18.59,0,0,0-9.19-2.39,12.59,12.59,0,0,0-6.93,1.94A17.25,17.25,0,0,0,21.16,24a31.46,31.46,0,0,0-2.8,6.23,1.66,1.66,0,0,0,2,2.2A24.19,24.19,0,0,1,28.87,31a23,23,0,0,1,10.22,2.26A23.55,23.55,0,0,1,47,39.53a28.83,28.83,0,0,1,5,9.39A37.13,37.13,0,0,1,53.74,60.34Z"/>
    <path fill="#b97095"
          d="M111,60.34A38.25,38.25,0,0,1,109,72.72a30.5,30.5,0,0,1-5.54,10,26,26,0,0,1-8.55,6.67,24.59,24.59,0,0,1-10.82,2.42,22.7,22.7,0,0,1-11.56-3,25.05,25.05,0,0,1-8.65-8.66,42.7,42.7,0,0,1-5-13,76.1,76.1,0,0,1-1.66-16.53,87.44,87.44,0,0,1,2.15-20,52.92,52.92,0,0,1,6.42-16A32.66,32.66,0,0,1,76.43,3.9,27.11,27.11,0,0,1,90.76,0a31.39,31.39,0,0,1,13.09,2.49l1.84.85a1.73,1.73,0,0,1,1,1.58V19.44A1.59,1.59,0,0,1,104.36,21L100,18.57a18.56,18.56,0,0,0-9.18-2.39,12.62,12.62,0,0,0-6.94,1.94A17.13,17.13,0,0,0,78.39,24a30.35,30.35,0,0,0-2.8,6.23,1.66,1.66,0,0,0,2,2.2A24.15,24.15,0,0,1,86.1,31a23,23,0,0,1,10.22,2.26,23.65,23.65,0,0,1,7.94,6.31,29,29,0,0,1,5,9.39A37.13,37.13,0,0,1,111,60.34Z"/>

</svg>