<svg xmlns="http://www.w3.org/2000/svg" width="73.15" height="73.199" viewBox="0 0 73.15 73.199">
  <g id="remove" transform="translate(-355.459 -334.927)">
    <path id="Path_440" data-name="Path 440" d="M888.612,259.2a46.613,46.613,0,0,0-2.214-8.743,79.006,79.006,0,0,1,2.2,8.763,35.845,35.845,0,0,1-35.813,1.678c-11.427-5.559-18.838-17.757-19.61-30.265A36.6,36.6,0,0,1,849.7,198.513c8.184-4.941,18.221-7.1,27.451-4.8a35.667,35.667,0,0,1,8.638,3.155l0,0a35.95,35.95,0,0,1,19.419,30.342,44.12,44.12,0,0,0-9.62-2.633,80.438,80.438,0,0,1,9.623,2.7C906.061,239.9,899.267,252.557,888.612,259.2Z" transform="translate(-477.176 142.73)" fill="#eb2800" stroke="#eb2800" stroke-miterlimit="10" stroke-width="1"/>
    <g id="Group_12" data-name="Group 12" transform="translate(381.021 358.987)">
      <path id="Path_441" data-name="Path 441" d="M1005.614,401.245a3.15,3.15,0,0,0,3.146,3.146h12.585a3.15,3.15,0,0,0,3.146-3.146V385.514h-18.878Z" transform="translate(-1004.041 -379.222)" fill="#fff"/>
      <path id="Path_442" data-name="Path 442" d="M1009.585,346.336v-1.573h-6.292v1.573h-7.866v3.146h22.024v-3.146Z" transform="translate(-995.427 -344.763)" fill="#fff"/>
    </g>
  </g>
</svg>
