<svg xmlns="http://www.w3.org/2000/svg" width="59.517" height="53.765" viewBox="0 0 59.517 53.765">
  <g id="report" transform="translate(-493.488 -1092.378)">
    <path id="Path_446" data-name="Path 446" d="M546.705,1098.353c.008-3.723,2.228-5.917,5.981-5.918,7.76,0,15.519.026,23.278-.016a5.575,5.575,0,0,1,5.661,3.729c2.541,6.061,5.083,12.12,7.679,18.157a9.285,9.285,0,0,1,.517,3.569c.046,1.6.061,3.205.19,4.815.214,2.66-2.554,4.975-5.639,4.987-5.071.02-10.143.03-15.214-.014-1.115-.01-1.6.062-1.245,1.436.838,3.283,1.434,6.628,2.208,9.929a5.435,5.435,0,0,1-1.9,5.831c-2.039,1.744-2.007,1.782-3.861-.072-5.308-5.307-10.6-10.635-15.937-15.907a5.544,5.544,0,0,1-1.727-4.206C546.714,1120.262,546.7,1102.715,546.705,1098.353Z" transform="translate(-37.018 -0.029)" fill="#af0101"/>
    <path id="Path_447" data-name="Path 447" d="M504.439,1123.661c.013,1.08-.3,1.358-1.35,1.331-2.836-.073-5.676-.058-8.513-.005-.866.016-1.09-.243-1.088-1.1q.043-15.2,0-30.408c0-.851.219-1.114,1.087-1.1,2.837.054,5.677.068,8.513,0,1.052-.027,1.364.247,1.351,1.329C504.379,1098.726,504.379,1118.7,504.439,1123.661Z" fill="#af0202"/>
  </g>
</svg>
