<svg xmlns="http://www.w3.org/2000/svg" width="59.183" height="66.002" viewBox="0 0 59.183 66.002">
  <path id="settings" d="M197.273,267.894l-22.017,12.726a7.584,7.584,0,0,0-3.8,6.571V312.6a7.6,7.6,0,0,0,3.8,6.58l22.017,12.69a7.6,7.6,0,0,0,7.588,0l21.98-12.685a7.587,7.587,0,0,0,3.8-6.575V287.191a7.6,7.6,0,0,0-3.792-6.575L204.875,267.9A7.6,7.6,0,0,0,197.273,267.894Zm-1.282,46.4a14.82,14.82,0,0,1-9.4-9.414,15.288,15.288,0,1,1,9.4,9.414Z" transform="translate(-171.46 -266.878)" fill="#a85989"/>
</svg>
