<svg xmlns="http://www.w3.org/2000/svg" width="46" height="46" viewBox="0 0 46 46">
  <g id="status" transform="translate(-177.748 -1258.614)">
    <circle id="Ellipse_5" data-name="Ellipse 5" cx="21" cy="21" r="21" transform="translate(179.748 1260.614)" fill="none" stroke="#4c0048" stroke-miterlimit="10" stroke-width="4"/>
    <path id="Path_443" data-name="Path 443" d="M378.477,1572.542a5.355,5.355,0,0,1-.088,1.068,1.411,1.411,0,0,1-.333.686,1.327,1.327,0,0,1-.637.372,3.869,3.869,0,0,1-1,.108,3.982,3.982,0,0,1-1.01-.108,1.267,1.267,0,0,1-.637-.372,1.459,1.459,0,0,1-.323-.686,5.355,5.355,0,0,1-.088-1.068,5.666,5.666,0,0,1,.088-1.088,1.21,1.21,0,0,1,.96-1.039,3.982,3.982,0,0,1,1.01-.108,3.869,3.869,0,0,1,1,.108,1.411,1.411,0,0,1,.637.353,1.307,1.307,0,0,1,.333.686A5.666,5.666,0,0,1,378.477,1572.542Z" transform="translate(-175.697 -279.598)" fill="#4c0048" stroke="#4c0048" stroke-miterlimit="10" stroke-width="1"/>
    <path id="Path_444" data-name="Path 444" d="M380.383,1356.668a.536.536,0,0,1-.069.274.511.511,0,0,1-.245.2,1.716,1.716,0,0,1-.451.118,6.025,6.025,0,0,1-1.372,0,1.713,1.713,0,0,1-.451-.118.51.51,0,0,1-.245-.2.532.532,0,0,1-.069-.274l-.333-18.7a.83.83,0,0,1,.059-.412.645.645,0,0,1,.284-.294,1.559,1.559,0,0,1,.549-.167,6.575,6.575,0,0,1,.892-.049,5.321,5.321,0,0,1,.872.059,1.692,1.692,0,0,1,.549.176.662.662,0,0,1,.284.284.941.941,0,0,1,.078.4Z" transform="translate(-178.21 -68.997)" fill="#4c0048" stroke="#4c0048" stroke-miterlimit="10" stroke-width="1"/>
  </g>
</svg>
