<svg xmlns="http://www.w3.org/2000/svg" xmlns:xlink="http://www.w3.org/1999/xlink" width="438" height="227.38" viewBox="0 0 438 227.38">
  <defs>
    <filter id="Path_188" x="0" y="0" width="438" height="227.38" filterUnits="userSpaceOnUse">
      <feOffset dy="4" input="SourceAlpha"/>
      <feGaussianBlur stdDeviation="4" result="blur"/>
      <feFlood flood-opacity="0.239"/>
      <feComposite operator="in" in2="blur"/>
      <feComposite in="SourceGraphic"/>
    </filter>
    <filter id="Path_189" x="0" y="0" width="438" height="204.977" filterUnits="userSpaceOnUse">
      <feOffset dy="4" input="SourceAlpha"/>
      <feGaussianBlur stdDeviation="4" result="blur-2"/>
      <feFlood flood-opacity="0.239"/>
      <feComposite operator="in" in2="blur-2"/>
      <feComposite in="SourceGraphic"/>
    </filter>
  </defs>
  <g id="background" transform="translate(523.497 -527.004)">
    <g transform="matrix(1, 0, 0, 1, -523.5, 527)" style="isolation: isolate">
      <path id="Path_188-2" d="M-97.5,535v203.38c-.17-.07-.33-.14-.5-.21q-2.265-.96-4.6-1.97c-49.75-21.5-59.56-54.52-83.86-80.35-15.94-16.96-38.13-30.81-81.97-36.25-46.74-5.8-108.13,7.5-163.44,24.79-29.06,9.08-56.44,19.27-79.13,28.37-.17.07-.33.13-.5.2V535Z" transform="translate(523.5 -527)" fill="#d17ea8" opacity="0.059"/>
    </g>
    <g transform="matrix(1, 0, 0, 1, -523.5, 527)" style="isolation: isolate">
      <path id="Path_189-2" d="M-511.5,535h414v101.46c-.16-.55-.33-1.1-.5-1.64-.25-.82-.51-1.63-.77-2.44-11.92-36.82-40.46-14.85-44.21-13.35-2.07.83-20.29,17.63-43.48,36.82-18.86,15.59-41.01,32.74-60.45,44.16-43.35,25.45-111.67,25.54-167.23-37.46a243.958,243.958,0,0,0-17.73-18.16c-31.25-28.83-61.25-40.8-79.13-45.71-.17-.04-.34-.09-.5-.13Z" transform="translate(523.5 -527)" fill="#b97095" opacity="0.059"/>
    </g>
  </g>
</svg>
