<svg xmlns="http://www.w3.org/2000/svg" width="69.599" height="69.715" viewBox="0 0 69.599 69.715">
  <g id="logo" transform="translate(-71 -994)">
    <path id="Path_8" data-name="Path 8" d="M132.026,1022.54q-1.818,2.994-3.635,5.987c-9.482.525-18.41,3.64-27.456,6.083-6.415,1.732-12.779,3.6-19.334,4.729a2.5,2.5,0,0,1-2.259-1.637c-.775-1.562-3.345-2.43-2.555-4.467,1.007-2.594,3.558-.472,5.3-1.11,1.375-.81,2.471-2.031,3.957-2.673,5.62-3.681,11.7-2.441,17.739-1.686q.9-.57,1.822-1.084a10.812,10.812,0,0,1,2.013-.9,97.111,97.111,0,0,1,18.29-5.816,21.086,21.086,0,0,1,14.038,1.529l-1.743.217C136.241,1022.725,133.978,1021.48,132.026,1022.54Z" fill="#905a79"/>
    <path id="Path_9" data-name="Path 9" d="M124.026,1035.711c-.565,1.213.639,2.9-1.027,3.819-.893-1.122-1.985-1.9-3.442-1.254-9.158,4.072-19.563,3.91-28.582,8.44a10.924,10.924,0,0,1-6.127-2.823,1.748,1.748,0,0,1-.195-1.5,5.191,5.191,0,0,1,3.371-2.717c10.9-3.209,21.751-6.612,32.688-9.7,4.408-1.246,6.207.3,5.441,3.993C125.883,1035.266,124.537,1034.9,124.026,1035.711Z" fill="#82536f"/>
    <path id="Path_10" data-name="Path 10" d="M124.026,1035.711a3.509,3.509,0,0,0,1.107-4.343c-.792-1.493-2.592-.7-3.964-.3-11.1,3.232-22.195,6.456-33.268,9.763a13.367,13.367,0,0,0-2.936,1.8,3.983,3.983,0,0,1-3.973-4c11.782-2.748,23.132-7.158,35.134-9.084a19.446,19.446,0,0,0,5.55-2.005c2.562-1.3,4.69-.8,6.714.987C129.116,1030.541,126.345,1035.1,124.026,1035.711Z" fill="#895674"/>
    <path id="Path_11" data-name="Path 11" d="M90.942,1004.667c-7.886-1.26-10.688,1.905-8.8,9.937-.936.473-1.49-.24-2.2-.636-3.259-1.821-4.545-1.205-5.853,2.313-.915,2.459-.08,5.41-2.181,7.5-3.3-5.84,2.915-20.673,9.272-24.527,3.376-2.047,6.556-4.623,10.815-4.642,1.411-.654,3.029-1.076,4.052.27a2.808,2.808,0,0,1-.74,4.021C93.039,1000.326,94.872,1004.686,90.942,1004.667Z" fill="#c4749f"/>
    <path id="Path_12" data-name="Path 12" d="M80.992,1038.629a10.532,10.532,0,0,0,3.974,4q-.06.63-.118,1.26c-4.576-2.674-7.33-6.913-9.8-11.4-.848-1.919-2.017-3.761-1.435-6.022,1.751-2.209,3.861-2.431,6.235-1.129.841-.109-.167,2.331,1.5,1.1a49.163,49.163,0,0,0,4.234-3.248c2.632-3.657,5.757-.85,8.682-.671a3.432,3.432,0,0,1,2.719,1.137c1.042.692,1.864,1.656,2.917,2.332,1.618,1.04,3.773,1.042,5.1,2.637a2.054,2.054,0,0,1-2.617.881c-5.747-2.95-11.125-1.126-16.505,1.06a2.535,2.535,0,0,1,.579-2.262c-2.507,2.029-2.507,2.029-3.548,5.079-.184.256-.312.641-.559.747-1.789.771-3.508-2.953-4.549-.855C76.741,1035.415,79.881,1036.8,80.992,1038.629Z" fill="#9f6585"/>
    <path id="Path_13" data-name="Path 13" d="M139.943,1021.492a24.754,24.754,0,0,0-13.4-.51c-6.512,1.616-12.895,3.754-19.333,5.669-1.062-2.1.713-2.886,1.844-3.97,4.033-1,6.607-3.756,8.629-7.176,2.345-.906,1.906-6.591,6.434-3.753.465,1.24-.437,2.047-.928,2.96-.122.446-.259.9.546.714a3.947,3.947,0,0,1,1.641-.4c1.136.007,1.945.876,3,1.1a8.654,8.654,0,0,0,5.58-1.625l-.048.032c1.677.506,3.3-3.065,5.01-.062l-7.645,4.447c3.258,1.824,6.58-.288,9.244,1.547a.452.452,0,0,1,.052.44A4.505,4.505,0,0,1,139.943,1021.492Z" fill="#996180"/>
    <path id="Path_14" data-name="Path 14" d="M114.841,1045.581c-1.56,3.521-.517,7.225-.758,10.838-.14,2.1,1.3,2.135,2.879,2.49,5.182,1.162,10.769,1,16.02,4.448-16.362-.446-32.008-1.647-47.63.355-.247.032-.584-.236-.781-.453-.057-.063.224-.435.351-.665,5.3-2.281,11.3-1.125,16.6-3.39,2.393-.769,2.4-2.772,2.5-4.764.074-1.548-.458-3.4,1.746-4.032,1.517.9,1.357,2.5,1.567,3.919.238,1.606.844,2.822,2.632,3.033,3.467-1.759.9-4.917,1.705-7.287C112.291,1048.243,111.063,1045.168,114.841,1045.581Z" fill="#a06c91"/>
    <path id="Path_15" data-name="Path 15" d="M90.975,1046.716c.545-3.307,3.6-3.273,5.741-3.737,7.831-1.7,15.65-3.4,23.165-6.214,3.069-1.151,3.3.471,3.118,2.765l-1.006.057c-4.13-2.079-2.926,2.05-4.045,3.479-6.4,2.894-13.287,4.295-19.94,6.412Z" fill="#794e69"/>
    <path id="Path_16" data-name="Path 16" d="M98.008,1049.478a2.256,2.256,0,0,1,1.724-2.144c6.084-1.6,12.184-3.146,18.279-4.709.719-.118,1.295.11,1.336.88.051.957-.419,1.472-1.459,1.19l-3.047.886c-3.989,3.007-.979,7.188-1.75,10.749-.42,1.936.215,4.563-3.105,2.3-.312-3.174-.922-6.2-4.008-7.979-1.927,1.76-.918,4.035-.948,6.07-.031,2.094-.675,3.148-2.877,2.847q-.99-.3-.182-.95C104.453,1053.92,101.836,1051.436,98.008,1049.478Z" fill="#765069"/>
    <path id="Path_17" data-name="Path 17" d="M90.942,1004.667c2.079-2.231,2.409-5.365,4.286-7.883,1.592-2.136-1.608-2.062-3.228-2.168,6.726-1.96,12.519,2.036,13.048,9-2.3,5.427-3.58,6.285-8.85,5.953Z" fill="#cf6daa"/>
    <path id="Path_18" data-name="Path 18" d="M73.987,1026.628l1.065,5.865a11.869,11.869,0,0,1-3.139-8.709c.27-2.249.012-4.506.739-6.774.761-2.376.317-4.7,3.978-5.691,3.823-1.036,3.637,2.374,5.516,3.285l5.133,4.894c-1.179,1.33-2.351.486-3.492-.045-1.82-.847-2.725,0-3.227,1.67-.657,1.578-1.553,2.86-3.506,2.823a2.309,2.309,0,0,1-1.393-1.484,3.089,3.089,0,0,1,.5-1.838,3.926,3.926,0,0,0,.719-1.224c-.485.13-.711.658-1.2.8C73.2,1021.844,74.673,1024.523,73.987,1026.628Z" fill="#b67396"/>
    <path id="Path_19" data-name="Path 19" d="M73.987,1026.628c-.8-2.491-2.929-5.18,1.033-6.965.789.826.115,2.12.939,2.935q.552.549,1.1,1.1c2-.023,3.075-.957,3.005-3.03.362-2.523.581-5.345,4.088-2.368a3.734,3.734,0,0,0,3.123,1.2l6.988,3.022c-2.855.4-6.346-1.737-8.348,2.085-2.5-1-3.451,2.9-5.956,1.877C77.929,1024.829,75.958,1025.737,73.987,1026.628Z" fill="#aa6b8d"/>
    <path id="Path_20" data-name="Path 20" d="M96.2,1009.569c3.975-.461,6.4-3.222,8.85-5.953a10.855,10.855,0,0,1,.8,6.294c-.225,1.8,1.855,7.314-3.564,2.822a1.151,1.151,0,0,0-.822-.324C97.783,1013.469,97.786,1013.479,96.2,1009.569Z" fill="#c277a3"/>
    <path id="Path_21" data-name="Path 21" d="M123.949,1012.388c-3.9-2.607-3.552,3.334-6.266,3.117a57.655,57.655,0,0,1,6.666-11.948c1.167-1.618,2.594-3.611,4.7-2.49,1.93,1.026-.23,2.912-.131,4.439C127.83,1008.21,128.37,1012.09,123.949,1012.388Z" fill="#b07394"/>
    <path id="Path_22" data-name="Path 22" d="M128.009,1016.638,125,1015.626c.142-3.637,2.632-5.774,5.074-7.942,1.4-.81,2.727-3.216,4.425-1.151,1.391,1.691-.246,3.251-1.541,4.559-1.578,1.6-3.96,2.311-4.952,4.538q.525.335.353.671C128.241,1016.526,128.126,1016.638,128.009,1016.638Z" fill="#b17c99"/>
    <path id="Path_23" data-name="Path 23" d="M130.071,1007.684c-.919,3.141-3.685,5.1-5.074,7.942l-1.023.911c-2.268,1.04-2.679.139-1.992-1.907l1.967-2.241c2.541-1.656,2.932-4.864,4.97-6.883C129.066,1006.357,129.155,1007.239,130.071,1007.684Z" fill="#ebdfe6"/>
    <path id="Path_24" data-name="Path 24" d="M101.971,1058.615a4.739,4.739,0,0,1,.181.951c-5.275,3.668-11.615,1.288-17.23,3.028C90.251,1059.753,96.244,1059.751,101.971,1058.615Z" fill="#ab759a"/>
    <path id="Path_25" data-name="Path 25" d="M100.94,1021.574c-1.253-1.139-1.809-2.333.034-3.369,1.487-.836,3.287-1.166,4.492.149,1.316,1.435-.608,2.142-1.278,3.1A2.115,2.115,0,0,1,100.94,1021.574Z" fill="#ce9ab6"/>
    <path id="Path_26" data-name="Path 26" d="M100.94,1021.574l3.247-.121,1.778.224c1.751.995,1.579,2.287.47,3.61-1.46,1.741-2.561-.095-3.812-.437-1.619.03-3.408.318-3.514-2.131Z" fill="#a57491"/>
    <path id="Path_27" data-name="Path 27" d="M103.013,1023.643c1.668-1.016.717,2.738,2.46,1.382a2.308,2.308,0,0,0,.492-3.348l3.088,1q-.922,1.986-1.844,3.97l-1.155,1.045c-1-.812-2.616.171-3.447-1.161A2.571,2.571,0,0,1,103.013,1023.643Z" fill="#d3c5ce"/>
    <path id="Path_28" data-name="Path 28" d="M103.013,1023.643l-.09,2.831c-1.252,1.546-2.682-.323-3.987.209a3.04,3.04,0,0,1-1.95-3.026l2.122-.938A2.841,2.841,0,0,0,103.013,1023.643Z" fill="#c5aebc"/>
    <path id="Path_29" data-name="Path 29" d="M117.888,1044.695c1.019-.632,1.2-1.313.123-2.07-.075-2.85.039-5.452,3.982-3.038-1.834.071-3.9-.219-2.421,2.866C120.026,1043.4,121.515,1046.285,117.888,1044.695Z" fill="#82536f"/>
    <path id="Path_30" data-name="Path 30" d="M138.913,1014.47c-1.688-1.477-3.328.912-5.009.062,1.8-.994,3.48-3.129,5.658-.621.037.043-.09.293-.2.38A1.494,1.494,0,0,1,138.913,1014.47Z" fill="#a97692"/>
    <path id="Path_31" data-name="Path 31" d="M128.009,1016.638,128,1015.63c2.14.449,3.894-1.129,5.948-1.13C132.505,1016.7,130.257,1016.67,128.009,1016.638Z" fill="#a97692"/>
    <path id="Path_32" data-name="Path 32" d="M132.026,1022.54c1.866-1.7,4.094-.712,6.173-.832C136.24,1022.714,134.1,1022.384,132.026,1022.54Z" fill="#996180"/>
    <path id="Path_34" data-name="Path 34" d="M82.91,1033.384c-1.054-4.047.9-6.157,6.74-7.165-.556,2.119-3.009,2.52-3.77,4.348Q84.394,1031.975,82.91,1033.384Z" fill="#d6bdcb"/>
    <path id="Path_35" data-name="Path 35" d="M98.936,1026.683c1.238-1.845,2.684.354,3.988-.207,1.1.252,2.439-.092,3.13,1.22l-1.053.93C102.805,1028.52,100.657,1028.268,98.936,1026.683Z" fill="#ebe3e7"/>
    <path id="Path_36" data-name="Path 36" d="M79.962,1026.482c2.054-.41,2.97-4.429,5.956-1.877A39.81,39.81,0,0,1,81.123,1028C78.992,1029.094,79.638,1027.55,79.962,1026.482Z" fill="#d1b2c3"/>
    <path id="Path_37" data-name="Path 37" d="M121.982,1014.63c.1,1.222.609,2.022,1.992,1.907-.621.983-1.492,1.405-2.4.546S121.089,1015.326,121.982,1014.63Z" fill="#b07394"/>
    <path id="Path_38" data-name="Path 38" d="M105.978,1050.648c4.63.529,5.811,2.88,4.008,7.979-3.068.831-4.381-.368-4.136-3.5C105.966,1053.641,105.94,1052.142,105.978,1050.648Z" fill="#ede9ec"/>
    <path id="Path_39" data-name="Path 39" d="M98.217,999.757a2.462,2.462,0,0,1,2.694,2.37c.2,1.606-.513,2.505-2.178,2.512-1.518.006-3.249-.049-3.3-2.017C95.391,1000.983,96.77,1000.149,98.217,999.757Z" fill="#f284d6"/>
    <path id="Path_40" data-name="Path 40" d="M75.959,1022.6c-2.677-.222-1.539-1.665-.939-2.936l4.286-3.253C78.868,1019.321,76.978,1020.727,75.959,1022.6Z" fill="#cc9fb7"/>
    <path id="Path_41" data-name="Path 41" d="M80.067,1020.668c.784.1,1.982.288,1.051,1.268-1,1.049-1.694,3.6-4.056,1.761Z" fill="#ceaabe"/>
    <path id="Path_42" data-name="Path 42" d="M99.806,1002.7c-.569.344-.916.718-1.282.739-.685.037-1.249-.372-1.011-1.118.086-.272.772-.509,1.162-.479C99.008,1001.869,99.308,1002.3,99.806,1002.7Z" fill="#fb9fdd"/>
  </g>
</svg>
